<?xml version="1.0" encoding="UTF-8" standalone="no"?>
<!-- Created with Inkscape (http://www.inkscape.org/) -->

<svg
   xmlns:dc="http://purl.org/dc/elements/1.1/"
   xmlns:cc="http://creativecommons.org/ns#"
   xmlns:rdf="http://www.w3.org/1999/02/22-rdf-syntax-ns#"
   xmlns:svg="http://www.w3.org/2000/svg"
   xmlns="http://www.w3.org/2000/svg"
   xmlns:sodipodi="http://sodipodi.sourceforge.net/DTD/sodipodi-0.dtd"
   xmlns:inkscape="http://www.inkscape.org/namespaces/inkscape"
   width="2406.2266"
   height="1570.9078"
   id="svg3642"
   version="1.1"
   inkscape:version="0.47 r22583"
   sodipodi:docname="flower111.svg">
  <defs
     id="defs3644">
    <inkscape:path-effect
       effect="spiro"
       id="path-effect4353"
       is_visible="true" />
    <inkscape:path-effect
       effect="spiro"
       id="path-effect4345"
       is_visible="true" />
    <inkscape:path-effect
       effect="spiro"
       id="path-effect4236"
       is_visible="true" />
    <inkscape:path-effect
       is_visible="true"
       id="path-effect4232"
       effect="spiro" />
    <inkscape:path-effect
       effect="spiro"
       id="path-effect4228"
       is_visible="true" />
    <inkscape:path-effect
       is_visible="true"
       id="path-effect4218"
       effect="spiro" />
    <inkscape:path-effect
       effect="spiro"
       id="path-effect4214"
       is_visible="true" />
    <inkscape:path-effect
       is_visible="true"
       id="path-effect4210"
       effect="spiro" />
    <inkscape:path-effect
       effect="spiro"
       id="path-effect4200"
       is_visible="true" />
    <inkscape:path-effect
       is_visible="true"
       id="path-effect4194"
       effect="spiro" />
    <linearGradient
       id="linearGradient4182">
      <stop
         style="stop-color:#ff6600;stop-opacity:1;"
         offset="0"
         id="stop4184" />
      <stop
         style="stop-color:#ffffff;stop-opacity:1;"
         offset="1"
         id="stop4186" />
    </linearGradient>
    <inkscape:path-effect
       effect="spiro"
       id="path-effect3662"
       is_visible="true" />
    <inkscape:path-effect
       effect="spiro"
       id="path-effect3658"
       is_visible="true" />
    <inkscape:path-effect
       effect="spiro"
       id="path-effect3654"
       is_visible="true" />
    <inkscape:perspective
       sodipodi:type="inkscape:persp3d"
       inkscape:vp_x="0 : 526.18109 : 1"
       inkscape:vp_y="0 : 1000 : 0"
       inkscape:vp_z="744.09448 : 526.18109 : 1"
       inkscape:persp3d-origin="372.04724 : 350.78739 : 1"
       id="perspective3650" />
  </defs>
  <sodipodi:namedview
     id="base"
     pagecolor="#ffffff"
     bordercolor="#666666"
     borderopacity="1.0"
     inkscape:pageopacity="0.0"
     inkscape:pageshadow="2"
     inkscape:zoom="0.33953577"
     inkscape:cx="1203.1133"
     inkscape:cy="785.45392"
     inkscape:document-units="px"
     inkscape:current-layer="layer1"
     showgrid="false"
     inkscape:window-width="1280"
     inkscape:window-height="963"
     inkscape:window-x="-9"
     inkscape:window-y="-9"
     inkscape:window-maximized="1" />
  <metadata
     id="metadata3647">
    <rdf:RDF>
      <cc:Work
         rdf:about="">
        <dc:format>image/svg+xml</dc:format>
        <dc:type
           rdf:resource="http://purl.org/dc/dcmitype/StillImage" />
        <dc:title></dc:title>
      </cc:Work>
    </rdf:RDF>
  </metadata>
  <g
     inkscape:label="Layer 1"
     inkscape:groupmode="layer"
     id="layer1"
     transform="translate(284.13156,-59.105397)">
    <g
       id="g4367"
       transform="translate(2.2172877,-795.57216)"
       style="fill:#002d00;fill-opacity:1">
      <path
         id="path4369"
         d="m 223.80433,1051.129 c 0,0 -8.13554,-49.9723 -44.32812,-85.42287 -36.19259,-35.45049 -75.07463,-59.8211 -75.07463,-59.8211 0,0 52.80811,2.15228 72.79668,20.87016 19.98856,18.71787 -24.52555,-57.15053 -24.52555,-57.15053 0,0 82.68335,32.8695 74.8594,65.10189 -7.82394,32.2324 6.61179,-62.39173 6.61179,-62.39173 0,0 38.26565,44.48656 23.39086,75.00749 -14.87478,30.52091 24.24319,-20.7806 24.24319,-20.7806 0,0 -2.54316,32.44764 -18.48373,54.17695 -15.94056,21.72934 -39.97884,72.42484 -39.48989,70.41034 z"
         style="fill:#002d00;fill-opacity:1;stroke:none" />
      <path
         style="fill:#002d00;fill-opacity:1;stroke:none"
         d="m 223.36948,1047.476 c 0,0 46.01015,-21.1303 95.62317,-10.8742 49.61304,10.2559 91.5317,28.9259 91.5317,28.9259 0,0 -31.25013,-42.6235 -57.9362,-48.768 -26.68607,-6.1446 61.11188,-11.5336 61.11188,-11.5336 0,0 -73.41041,-50.27784 -95.79405,-25.80103 -22.38363,24.47683 48.08854,-40.29811 48.08854,-40.29811 0,0 -58.26854,-6.93478 -75.29789,22.43847 -17.02933,29.37323 3.71901,-31.71333 3.71901,-31.71333 0,0 -25.50866,20.21449 -34.64737,45.56699 -9.13872,25.35251 -37.79772,73.58661 -36.39879,72.05691 z"
         id="path4371" />
    </g>
    <g
       transform="matrix(0.49359583,-0.86969142,0.86969142,0.49359583,-960.22647,-77.278648)"
       id="g4373"
       inkscape:transform-center-x="108.70886"
       inkscape:transform-center-y="-18.118144"
       style="fill:#005600;fill-opacity:1">
      <path
         style="fill:#005600;fill-opacity:1;stroke:none"
         d="m 223.80433,1051.129 c 0,0 -8.13554,-49.9723 -44.32812,-85.42287 -36.19259,-35.45049 -75.07463,-59.8211 -75.07463,-59.8211 0,0 52.80811,2.15228 72.79668,20.87016 19.98856,18.71787 -24.52555,-57.15053 -24.52555,-57.15053 0,0 82.68335,32.8695 74.8594,65.10189 -7.82394,32.2324 6.61179,-62.39173 6.61179,-62.39173 0,0 38.26565,44.48656 23.39086,75.00749 -14.87478,30.52091 24.24319,-20.7806 24.24319,-20.7806 0,0 -2.54316,32.44764 -18.48373,54.17695 -15.94056,21.72934 -39.97884,72.42484 -39.48989,70.41034 z"
         id="path4375" />
      <path
         id="path4377"
         d="m 223.36948,1047.476 c 0,0 46.01015,-21.1303 95.62317,-10.8742 49.61304,10.2559 91.5317,28.9259 91.5317,28.9259 0,0 -31.25013,-42.6235 -57.9362,-48.768 -26.68607,-6.1446 61.11188,-11.5336 61.11188,-11.5336 0,0 -73.41041,-50.27784 -95.79405,-25.80103 -22.38363,24.47683 48.08854,-40.29811 48.08854,-40.29811 0,0 -58.26854,-6.93478 -75.29789,22.43847 -17.02933,29.37323 3.71901,-31.71333 3.71901,-31.71333 0,0 -25.50866,20.21449 -34.64737,45.56699 -9.13872,25.35251 -37.79772,73.58661 -36.39879,72.05691 z"
         style="fill:#005600;fill-opacity:1;stroke:none" />
    </g>
    <path
       style="fill:#008000;stroke:none"
       d="m 78.056778,249.51746 c 0,0 -8.13554,-49.9723 -44.32812,-85.42287 -36.1925903,-35.45049 -75.07463,-59.8211 -75.07463,-59.8211 0,0 52.80811,2.15228 72.79668,20.87016 19.98856,18.71787 -24.5255503,-57.150528 -24.5255503,-57.150528 0,0 82.6833503,32.869498 74.8594003,65.101888 -7.82394,32.2324 6.61179,-62.391728 6.61179,-62.391728 0,0 38.265652,44.486558 23.390862,75.007488 -14.874782,30.52091 24.24319,-20.7806 24.24319,-20.7806 0,0 -2.54316,32.44764 -18.48373,54.17695 -15.94056,21.72934 -39.978842,72.42484 -39.489892,70.41034 z"
       id="path4355" />
    <path
       id="path4357"
       d="m 77.621928,245.86446 c 0,0 46.010152,-21.1303 95.623172,-10.8742 49.61304,10.2559 91.5317,28.9259 91.5317,28.9259 0,0 -31.25013,-42.6235 -57.9362,-48.768 -26.68607,-6.1446 61.11188,-11.5336 61.11188,-11.5336 0,0 -73.41041,-50.27784 -95.79405,-25.80103 -22.38363,24.47683 48.08854,-40.29811 48.08854,-40.29811 0,0 -58.26854,-6.93478 -75.29789,22.43847 -17.02933,29.37323 3.71901,-31.71333 3.71901,-31.71333 0,0 -25.50866,20.21449 -34.64737,45.56699 -9.13872,25.35251 -37.797722,73.58661 -36.398792,72.05691 z"
       style="fill:#008000;stroke:none" />
    <g
       id="g4363"
       transform="translate(-145.74755,-801.61154)">
      <path
         style="fill:#008000;stroke:none"
         d="m 223.80433,1051.129 c 0,0 -8.13554,-49.9723 -44.32812,-85.42287 -36.19259,-35.45049 -75.07463,-59.8211 -75.07463,-59.8211 0,0 52.80811,2.15228 72.79668,20.87016 19.98856,18.71787 -24.52555,-57.15053 -24.52555,-57.15053 0,0 82.68335,32.8695 74.8594,65.10189 -7.82394,32.2324 6.61179,-62.39173 6.61179,-62.39173 0,0 38.26565,44.48656 23.39086,75.00749 -14.87478,30.52091 24.24319,-20.7806 24.24319,-20.7806 0,0 -2.54316,32.44764 -18.48373,54.17695 -15.94056,21.72934 -39.97884,72.42484 -39.48989,70.41034 z"
         id="path4359" />
      <path
         id="path4361"
         d="m 223.36948,1047.476 c 0,0 46.01015,-21.1303 95.62317,-10.8742 49.61304,10.2559 91.5317,28.9259 91.5317,28.9259 0,0 -31.25013,-42.6235 -57.9362,-48.768 -26.68607,-6.1446 61.11188,-11.5336 61.11188,-11.5336 0,0 -73.41041,-50.27784 -95.79405,-25.80103 -22.38363,24.47683 48.08854,-40.29811 48.08854,-40.29811 0,0 -58.26854,-6.93478 -75.29789,22.43847 -17.02933,29.37323 3.71901,-31.71333 3.71901,-31.71333 0,0 -25.50866,20.21449 -34.64737,45.56699 -9.13872,25.35251 -37.79772,73.58661 -36.39879,72.05691 z"
         style="fill:#008000;stroke:none" />
    </g>
    <g
       style="fill:#002d00;fill-opacity:1"
       transform="translate(545.05256,-791.1105)"
       id="g4379">
      <path
         style="fill:#002d00;fill-opacity:1;stroke:none"
         d="m 223.80433,1051.129 c 0,0 -8.13554,-49.9723 -44.32812,-85.42287 -36.19259,-35.45049 -75.07463,-59.8211 -75.07463,-59.8211 0,0 52.80811,2.15228 72.79668,20.87016 19.98856,18.71787 -24.52555,-57.15053 -24.52555,-57.15053 0,0 82.68335,32.8695 74.8594,65.10189 -7.82394,32.2324 6.61179,-62.39173 6.61179,-62.39173 0,0 38.26565,44.48656 23.39086,75.00749 -14.87478,30.52091 24.24319,-20.7806 24.24319,-20.7806 0,0 -2.54316,32.44764 -18.48373,54.17695 -15.94056,21.72934 -39.97884,72.42484 -39.48989,70.41034 z"
         id="path4381" />
      <path
         id="path4383"
         d="m 223.36948,1047.476 c 0,0 46.01015,-21.1303 95.62317,-10.8742 49.61304,10.2559 91.5317,28.9259 91.5317,28.9259 0,0 -31.25013,-42.6235 -57.9362,-48.768 -26.68607,-6.1446 61.11188,-11.5336 61.11188,-11.5336 0,0 -73.41041,-50.27784 -95.79405,-25.80103 -22.38363,24.47683 48.08854,-40.29811 48.08854,-40.29811 0,0 -58.26854,-6.93478 -75.29789,22.43847 -17.02933,29.37323 3.71901,-31.71333 3.71901,-31.71333 0,0 -25.50866,20.21449 -34.64737,45.56699 -9.13872,25.35251 -37.79772,73.58661 -36.39879,72.05691 z"
         style="fill:#002d00;fill-opacity:1;stroke:none" />
    </g>
    <g
       style="fill:#005600;fill-opacity:1"
       inkscape:transform-center-y="-18.118144"
       inkscape:transform-center-x="108.70886"
       id="g4385"
       transform="matrix(0.49359583,-0.86969142,0.86969142,0.49359583,-417.3912,-72.816988)">
      <path
         id="path4387"
         d="m 223.80433,1051.129 c 0,0 -8.13554,-49.9723 -44.32812,-85.42287 -36.19259,-35.45049 -75.07463,-59.8211 -75.07463,-59.8211 0,0 52.80811,2.15228 72.79668,20.87016 19.98856,18.71787 -24.52555,-57.15053 -24.52555,-57.15053 0,0 82.68335,32.8695 74.8594,65.10189 -7.82394,32.2324 6.61179,-62.39173 6.61179,-62.39173 0,0 38.26565,44.48656 23.39086,75.00749 -14.87478,30.52091 24.24319,-20.7806 24.24319,-20.7806 0,0 -2.54316,32.44764 -18.48373,54.17695 -15.94056,21.72934 -39.97884,72.42484 -39.48989,70.41034 z"
         style="fill:#005600;fill-opacity:1;stroke:none" />
      <path
         style="fill:#005600;fill-opacity:1;stroke:none"
         d="m 223.36948,1047.476 c 0,0 46.01015,-21.1303 95.62317,-10.8742 49.61304,10.2559 91.5317,28.9259 91.5317,28.9259 0,0 -31.25013,-42.6235 -57.9362,-48.768 -26.68607,-6.1446 61.11188,-11.5336 61.11188,-11.5336 0,0 -73.41041,-50.27784 -95.79405,-25.80103 -22.38363,24.47683 48.08854,-40.29811 48.08854,-40.29811 0,0 -58.26854,-6.93478 -75.29789,22.43847 -17.02933,29.37323 3.71901,-31.71333 3.71901,-31.71333 0,0 -25.50866,20.21449 -34.64737,45.56699 -9.13872,25.35251 -37.79772,73.58661 -36.39879,72.05691 z"
         id="path4389" />
    </g>
    <path
       id="path4391"
       d="m 620.89205,253.97912 c 0,0 -8.13554,-49.9723 -44.32812,-85.42287 -36.19259,-35.45049 -75.07463,-59.8211 -75.07463,-59.8211 0,0 52.80811,2.15228 72.79668,20.87016 19.98856,18.71787 -24.52555,-57.150528 -24.52555,-57.150528 0,0 82.68335,32.869498 74.8594,65.101888 -7.82394,32.2324 6.61179,-62.391728 6.61179,-62.391728 0,0 38.26565,44.486558 23.39086,75.007488 -14.87478,30.52091 24.24319,-20.7806 24.24319,-20.7806 0,0 -2.54316,32.44764 -18.48373,54.17695 -15.94056,21.72934 -39.97884,72.42484 -39.48989,70.41034 z"
       style="fill:#008000;stroke:none" />
    <path
       style="fill:#008000;stroke:none"
       d="m 620.4572,250.32612 c 0,0 46.01015,-21.1303 95.62317,-10.8742 49.61304,10.2559 91.5317,28.9259 91.5317,28.9259 0,0 -31.25013,-42.6235 -57.9362,-48.768 -26.68607,-6.1446 61.11188,-11.5336 61.11188,-11.5336 0,0 -73.41041,-50.27784 -95.79405,-25.80103 -22.38363,24.47683 48.08854,-40.29811 48.08854,-40.29811 0,0 -58.26854,-6.93478 -75.29789,22.43847 -17.02933,29.37323 3.71901,-31.71333 3.71901,-31.71333 0,0 -25.50866,20.21449 -34.64737,45.56699 -9.13872,25.35251 -37.79772,73.58661 -36.39879,72.05691 z"
       id="path4393" />
    <g
       transform="translate(397.08772,-797.14988)"
       id="g4395">
      <path
         id="path4397"
         d="m 223.80433,1051.129 c 0,0 -8.13554,-49.9723 -44.32812,-85.42287 -36.19259,-35.45049 -75.07463,-59.8211 -75.07463,-59.8211 0,0 52.80811,2.15228 72.79668,20.87016 19.98856,18.71787 -24.52555,-57.15053 -24.52555,-57.15053 0,0 82.68335,32.8695 74.8594,65.10189 -7.82394,32.2324 6.61179,-62.39173 6.61179,-62.39173 0,0 38.26565,44.48656 23.39086,75.00749 -14.87478,30.52091 24.24319,-20.7806 24.24319,-20.7806 0,0 -2.54316,32.44764 -18.48373,54.17695 -15.94056,21.72934 -39.97884,72.42484 -39.48989,70.41034 z"
         style="fill:#008000;stroke:none" />
      <path
         style="fill:#008000;stroke:none"
         d="m 223.36948,1047.476 c 0,0 46.01015,-21.1303 95.62317,-10.8742 49.61304,10.2559 91.5317,28.9259 91.5317,28.9259 0,0 -31.25013,-42.6235 -57.9362,-48.768 -26.68607,-6.1446 61.11188,-11.5336 61.11188,-11.5336 0,0 -73.41041,-50.27784 -95.79405,-25.80103 -22.38363,24.47683 48.08854,-40.29811 48.08854,-40.29811 0,0 -58.26854,-6.93478 -75.29789,22.43847 -17.02933,29.37323 3.71901,-31.71333 3.71901,-31.71333 0,0 -25.50866,20.21449 -34.64737,45.56699 -9.13872,25.35251 -37.79772,73.58661 -36.39879,72.05691 z"
         id="path4399" />
    </g>
    <g
       transform="matrix(0.86987659,-0.49326943,0.49326943,0.86987659,-311.84124,-521.28847)"
       id="g4401"
       inkscape:transform-center-x="89.043672"
       inkscape:transform-center-y="-65.627779"
       style="fill:#009400;fill-opacity:1">
      <path
         style="fill:#009400;fill-opacity:1;stroke:none"
         d="m 223.80433,1051.129 c 0,0 -8.13554,-49.9723 -44.32812,-85.42287 -36.19259,-35.45049 -75.07463,-59.8211 -75.07463,-59.8211 0,0 52.80811,2.15228 72.79668,20.87016 19.98856,18.71787 -24.52555,-57.15053 -24.52555,-57.15053 0,0 82.68335,32.8695 74.8594,65.10189 -7.82394,32.2324 6.61179,-62.39173 6.61179,-62.39173 0,0 38.26565,44.48656 23.39086,75.00749 -14.87478,30.52091 24.24319,-20.7806 24.24319,-20.7806 0,0 -2.54316,32.44764 -18.48373,54.17695 -15.94056,21.72934 -39.97884,72.42484 -39.48989,70.41034 z"
         id="path4403" />
      <path
         id="path4405"
         d="m 223.36948,1047.476 c 0,0 46.01015,-21.1303 95.62317,-10.8742 49.61304,10.2559 91.5317,28.9259 91.5317,28.9259 0,0 -31.25013,-42.6235 -57.9362,-48.768 -26.68607,-6.1446 61.11188,-11.5336 61.11188,-11.5336 0,0 -73.41041,-50.27784 -95.79405,-25.80103 -22.38363,24.47683 48.08854,-40.29811 48.08854,-40.29811 0,0 -58.26854,-6.93478 -75.29789,22.43847 -17.02933,29.37323 3.71901,-31.71333 3.71901,-31.71333 0,0 -25.50866,20.21449 -34.64737,45.56699 -9.13872,25.35251 -37.79772,73.58661 -36.39879,72.05691 z"
         style="fill:#009400;fill-opacity:1;stroke:none" />
    </g>
    <g
       style="fill:#002d00;fill-opacity:1"
       transform="translate(1082.8549,-795.57216)"
       id="g4407">
      <path
         style="fill:#002d00;fill-opacity:1;stroke:none"
         d="m 223.80433,1051.129 c 0,0 -8.13554,-49.9723 -44.32812,-85.42287 -36.19259,-35.45049 -75.07463,-59.8211 -75.07463,-59.8211 0,0 52.80811,2.15228 72.79668,20.87016 19.98856,18.71787 -24.52555,-57.15053 -24.52555,-57.15053 0,0 82.68335,32.8695 74.8594,65.10189 -7.82394,32.2324 6.61179,-62.39173 6.61179,-62.39173 0,0 38.26565,44.48656 23.39086,75.00749 -14.87478,30.52091 24.24319,-20.7806 24.24319,-20.7806 0,0 -2.54316,32.44764 -18.48373,54.17695 -15.94056,21.72934 -39.97884,72.42484 -39.48989,70.41034 z"
         id="path4409" />
      <path
         id="path4411"
         d="m 223.36948,1047.476 c 0,0 46.01015,-21.1303 95.62317,-10.8742 49.61304,10.2559 91.5317,28.9259 91.5317,28.9259 0,0 -31.25013,-42.6235 -57.9362,-48.768 -26.68607,-6.1446 61.11188,-11.5336 61.11188,-11.5336 0,0 -73.41041,-50.27784 -95.79405,-25.80103 -22.38363,24.47683 48.08854,-40.29811 48.08854,-40.29811 0,0 -58.26854,-6.93478 -75.29789,22.43847 -17.02933,29.37323 3.71901,-31.71333 3.71901,-31.71333 0,0 -25.50866,20.21449 -34.64737,45.56699 -9.13872,25.35251 -37.79772,73.58661 -36.39879,72.05691 z"
         style="fill:#002d00;fill-opacity:1;stroke:none" />
    </g>
    <g
       style="fill:#005600;fill-opacity:1"
       inkscape:transform-center-y="-18.118144"
       inkscape:transform-center-x="108.70886"
       id="g4413"
       transform="matrix(0.49359583,-0.86969142,0.86969142,0.49359583,120.41115,-77.278648)">
      <path
         id="path4415"
         d="m 223.80433,1051.129 c 0,0 -8.13554,-49.9723 -44.32812,-85.42287 -36.19259,-35.45049 -75.07463,-59.8211 -75.07463,-59.8211 0,0 52.80811,2.15228 72.79668,20.87016 19.98856,18.71787 -24.52555,-57.15053 -24.52555,-57.15053 0,0 82.68335,32.8695 74.8594,65.10189 -7.82394,32.2324 6.61179,-62.39173 6.61179,-62.39173 0,0 38.26565,44.48656 23.39086,75.00749 -14.87478,30.52091 24.24319,-20.7806 24.24319,-20.7806 0,0 -2.54316,32.44764 -18.48373,54.17695 -15.94056,21.72934 -39.97884,72.42484 -39.48989,70.41034 z"
         style="fill:#005600;fill-opacity:1;stroke:none" />
      <path
         style="fill:#005600;fill-opacity:1;stroke:none"
         d="m 223.36948,1047.476 c 0,0 46.01015,-21.1303 95.62317,-10.8742 49.61304,10.2559 91.5317,28.9259 91.5317,28.9259 0,0 -31.25013,-42.6235 -57.9362,-48.768 -26.68607,-6.1446 61.11188,-11.5336 61.11188,-11.5336 0,0 -73.41041,-50.27784 -95.79405,-25.80103 -22.38363,24.47683 48.08854,-40.29811 48.08854,-40.29811 0,0 -58.26854,-6.93478 -75.29789,22.43847 -17.02933,29.37323 3.71901,-31.71333 3.71901,-31.71333 0,0 -25.50866,20.21449 -34.64737,45.56699 -9.13872,25.35251 -37.79772,73.58661 -36.39879,72.05691 z"
         id="path4417" />
    </g>
    <path
       id="path4419"
       d="m 1158.6944,249.51746 c 0,0 -8.1356,-49.9723 -44.3282,-85.42287 -36.1925,-35.45049 -75.0746,-59.8211 -75.0746,-59.8211 0,0 52.8081,2.15228 72.7967,20.87016 19.9886,18.71787 -24.5256,-57.150528 -24.5256,-57.150528 0,0 82.6834,32.869498 74.8594,65.101888 -7.8239,32.2324 6.6118,-62.391728 6.6118,-62.391728 0,0 38.2657,44.486558 23.3909,75.007488 -14.8748,30.52091 24.2432,-20.7806 24.2432,-20.7806 0,0 -2.5432,32.44764 -18.4837,54.17695 -15.9406,21.72934 -39.9789,72.42484 -39.4899,70.41034 z"
       style="fill:#008000;stroke:none" />
    <path
       style="fill:#008000;stroke:none"
       d="m 1158.2595,245.86446 c 0,0 46.0102,-21.1303 95.6232,-10.8742 49.613,10.2559 91.5317,28.9259 91.5317,28.9259 0,0 -31.2501,-42.6235 -57.9362,-48.768 -26.6861,-6.1446 61.1119,-11.5336 61.1119,-11.5336 0,0 -73.4104,-50.27784 -95.7941,-25.80103 -22.3836,24.47683 48.0886,-40.29811 48.0886,-40.29811 0,0 -58.2686,-6.93478 -75.2979,22.43847 -17.0294,29.37323 3.719,-31.71333 3.719,-31.71333 0,0 -25.5087,20.21449 -34.6474,45.56699 -9.1387,25.35251 -37.7977,73.58661 -36.3988,72.05691 z"
       id="path4421" />
    <g
       transform="translate(934.89007,-801.61154)"
       id="g4423">
      <path
         id="path4425"
         d="m 223.80433,1051.129 c 0,0 -8.13554,-49.9723 -44.32812,-85.42287 -36.19259,-35.45049 -75.07463,-59.8211 -75.07463,-59.8211 0,0 52.80811,2.15228 72.79668,20.87016 19.98856,18.71787 -24.52555,-57.15053 -24.52555,-57.15053 0,0 82.68335,32.8695 74.8594,65.10189 -7.82394,32.2324 6.61179,-62.39173 6.61179,-62.39173 0,0 38.26565,44.48656 23.39086,75.00749 -14.87478,30.52091 24.24319,-20.7806 24.24319,-20.7806 0,0 -2.54316,32.44764 -18.48373,54.17695 -15.94056,21.72934 -39.97884,72.42484 -39.48989,70.41034 z"
         style="fill:#008000;stroke:none" />
      <path
         style="fill:#008000;stroke:none"
         d="m 223.36948,1047.476 c 0,0 46.01015,-21.1303 95.62317,-10.8742 49.61304,10.2559 91.5317,28.9259 91.5317,28.9259 0,0 -31.25013,-42.6235 -57.9362,-48.768 -26.68607,-6.1446 61.11188,-11.5336 61.11188,-11.5336 0,0 -73.41041,-50.27784 -95.79405,-25.80103 -22.38363,24.47683 48.08854,-40.29811 48.08854,-40.29811 0,0 -58.26854,-6.93478 -75.29789,22.43847 -17.02933,29.37323 3.71901,-31.71333 3.71901,-31.71333 0,0 -25.50866,20.21449 -34.64737,45.56699 -9.13872,25.35251 -37.79772,73.58661 -36.39879,72.05691 z"
         id="path4427" />
    </g>
    <g
       id="g4429"
       transform="translate(1625.6901,-791.1105)"
       style="fill:#002d00;fill-opacity:1">
      <path
         id="path4431"
         d="m 223.80433,1051.129 c 0,0 -8.13554,-49.9723 -44.32812,-85.42287 -36.19259,-35.45049 -75.07463,-59.8211 -75.07463,-59.8211 0,0 52.80811,2.15228 72.79668,20.87016 19.98856,18.71787 -24.52555,-57.15053 -24.52555,-57.15053 0,0 82.68335,32.8695 74.8594,65.10189 -7.82394,32.2324 6.61179,-62.39173 6.61179,-62.39173 0,0 38.26565,44.48656 23.39086,75.00749 -14.87478,30.52091 24.24319,-20.7806 24.24319,-20.7806 0,0 -2.54316,32.44764 -18.48373,54.17695 -15.94056,21.72934 -39.97884,72.42484 -39.48989,70.41034 z"
         style="fill:#002d00;fill-opacity:1;stroke:none" />
      <path
         style="fill:#002d00;fill-opacity:1;stroke:none"
         d="m 223.36948,1047.476 c 0,0 46.01015,-21.1303 95.62317,-10.8742 49.61304,10.2559 91.5317,28.9259 91.5317,28.9259 0,0 -31.25013,-42.6235 -57.9362,-48.768 -26.68607,-6.1446 61.11188,-11.5336 61.11188,-11.5336 0,0 -73.41041,-50.27784 -95.79405,-25.80103 -22.38363,24.47683 48.08854,-40.29811 48.08854,-40.29811 0,0 -58.26854,-6.93478 -75.29789,22.43847 -17.02933,29.37323 3.71901,-31.71333 3.71901,-31.71333 0,0 -25.50866,20.21449 -34.64737,45.56699 -9.13872,25.35251 -37.79772,73.58661 -36.39879,72.05691 z"
         id="path4433" />
    </g>
    <g
       transform="matrix(0.49359583,-0.86969142,0.86969142,0.49359583,663.24642,-72.816988)"
       id="g4435"
       inkscape:transform-center-x="108.70886"
       inkscape:transform-center-y="-18.118144"
       style="fill:#005600;fill-opacity:1">
      <path
         style="fill:#005600;fill-opacity:1;stroke:none"
         d="m 223.80433,1051.129 c 0,0 -8.13554,-49.9723 -44.32812,-85.42287 -36.19259,-35.45049 -75.07463,-59.8211 -75.07463,-59.8211 0,0 52.80811,2.15228 72.79668,20.87016 19.98856,18.71787 -24.52555,-57.15053 -24.52555,-57.15053 0,0 82.68335,32.8695 74.8594,65.10189 -7.82394,32.2324 6.61179,-62.39173 6.61179,-62.39173 0,0 38.26565,44.48656 23.39086,75.00749 -14.87478,30.52091 24.24319,-20.7806 24.24319,-20.7806 0,0 -2.54316,32.44764 -18.48373,54.17695 -15.94056,21.72934 -39.97884,72.42484 -39.48989,70.41034 z"
         id="path4437" />
      <path
         id="path4439"
         d="m 223.36948,1047.476 c 0,0 46.01015,-21.1303 95.62317,-10.8742 49.61304,10.2559 91.5317,28.9259 91.5317,28.9259 0,0 -31.25013,-42.6235 -57.9362,-48.768 -26.68607,-6.1446 61.11188,-11.5336 61.11188,-11.5336 0,0 -73.41041,-50.27784 -95.79405,-25.80103 -22.38363,24.47683 48.08854,-40.29811 48.08854,-40.29811 0,0 -58.26854,-6.93478 -75.29789,22.43847 -17.02933,29.37323 3.71901,-31.71333 3.71901,-31.71333 0,0 -25.50866,20.21449 -34.64737,45.56699 -9.13872,25.35251 -37.79772,73.58661 -36.39879,72.05691 z"
         style="fill:#005600;fill-opacity:1;stroke:none" />
    </g>
    <path
       style="fill:#008000;stroke:none"
       d="m 1701.5296,253.97912 c 0,0 -8.1355,-49.9723 -44.3281,-85.42287 -36.1926,-35.45049 -75.0746,-59.8211 -75.0746,-59.8211 0,0 52.8081,2.15228 72.7967,20.87016 19.9885,18.71787 -24.5256,-57.150528 -24.5256,-57.150528 0,0 82.6834,32.869498 74.8594,65.101888 -7.8239,32.2324 6.6118,-62.391728 6.6118,-62.391728 0,0 38.2657,44.486558 23.3909,75.007488 -14.8748,30.52091 24.2432,-20.7806 24.2432,-20.7806 0,0 -2.5432,32.44764 -18.4838,54.17695 -15.9405,21.72934 -39.9788,72.42484 -39.4899,70.41034 z"
       id="path4441" />
    <path
       id="path4443"
       d="m 1701.0948,250.32612 c 0,0 46.0101,-21.1303 95.6232,-10.8742 49.613,10.2559 91.5317,28.9259 91.5317,28.9259 0,0 -31.2502,-42.6235 -57.9362,-48.768 -26.6861,-6.1446 61.1118,-11.5336 61.1118,-11.5336 0,0 -73.4104,-50.27784 -95.794,-25.80103 -22.3836,24.47683 48.0885,-40.29811 48.0885,-40.29811 0,0 -58.2685,-6.93478 -75.2979,22.43847 -17.0293,29.37323 3.719,-31.71333 3.719,-31.71333 0,0 -25.5086,20.21449 -34.6473,45.56699 -9.1387,25.35251 -37.7977,73.58661 -36.3988,72.05691 z"
       style="fill:#008000;stroke:none" />
    <g
       id="g4445"
       transform="translate(1477.7253,-797.14988)">
      <path
         style="fill:#008000;stroke:none"
         d="m 223.80433,1051.129 c 0,0 -8.13554,-49.9723 -44.32812,-85.42287 -36.19259,-35.45049 -75.07463,-59.8211 -75.07463,-59.8211 0,0 52.80811,2.15228 72.79668,20.87016 19.98856,18.71787 -24.52555,-57.15053 -24.52555,-57.15053 0,0 82.68335,32.8695 74.8594,65.10189 -7.82394,32.2324 6.61179,-62.39173 6.61179,-62.39173 0,0 38.26565,44.48656 23.39086,75.00749 -14.87478,30.52091 24.24319,-20.7806 24.24319,-20.7806 0,0 -2.54316,32.44764 -18.48373,54.17695 -15.94056,21.72934 -39.97884,72.42484 -39.48989,70.41034 z"
         id="path4447" />
      <path
         id="path4449"
         d="m 223.36948,1047.476 c 0,0 46.01015,-21.1303 95.62317,-10.8742 49.61304,10.2559 91.5317,28.9259 91.5317,28.9259 0,0 -31.25013,-42.6235 -57.9362,-48.768 -26.68607,-6.1446 61.11188,-11.5336 61.11188,-11.5336 0,0 -73.41041,-50.27784 -95.79405,-25.80103 -22.38363,24.47683 48.08854,-40.29811 48.08854,-40.29811 0,0 -58.26854,-6.93478 -75.29789,22.43847 -17.02933,29.37323 3.71901,-31.71333 3.71901,-31.71333 0,0 -25.50866,20.21449 -34.64737,45.56699 -9.13872,25.35251 -37.79772,73.58661 -36.39879,72.05691 z"
         style="fill:#008000;stroke:none" />
    </g>
    <g
       style="fill:#009400;fill-opacity:1"
       inkscape:transform-center-y="-65.627779"
       inkscape:transform-center-x="89.043672"
       id="g4451"
       transform="matrix(0.86987659,-0.49326943,0.49326943,0.86987659,768.79638,-521.28847)">
      <path
         id="path4453"
         d="m 223.80433,1051.129 c 0,0 -8.13554,-49.9723 -44.32812,-85.42287 -36.19259,-35.45049 -75.07463,-59.8211 -75.07463,-59.8211 0,0 52.80811,2.15228 72.79668,20.87016 19.98856,18.71787 -24.52555,-57.15053 -24.52555,-57.15053 0,0 82.68335,32.8695 74.8594,65.10189 -7.82394,32.2324 6.61179,-62.39173 6.61179,-62.39173 0,0 38.26565,44.48656 23.39086,75.00749 -14.87478,30.52091 24.24319,-20.7806 24.24319,-20.7806 0,0 -2.54316,32.44764 -18.48373,54.17695 -15.94056,21.72934 -39.97884,72.42484 -39.48989,70.41034 z"
         style="fill:#009400;fill-opacity:1;stroke:none" />
      <path
         style="fill:#009400;fill-opacity:1;stroke:none"
         d="m 223.36948,1047.476 c 0,0 46.01015,-21.1303 95.62317,-10.8742 49.61304,10.2559 91.5317,28.9259 91.5317,28.9259 0,0 -31.25013,-42.6235 -57.9362,-48.768 -26.68607,-6.1446 61.11188,-11.5336 61.11188,-11.5336 0,0 -73.41041,-50.27784 -95.79405,-25.80103 -22.38363,24.47683 48.08854,-40.29811 48.08854,-40.29811 0,0 -58.26854,-6.93478 -75.29789,22.43847 -17.02933,29.37323 3.71901,-31.71333 3.71901,-31.71333 0,0 -25.50866,20.21449 -34.64737,45.56699 -9.13872,25.35251 -37.79772,73.58661 -36.39879,72.05691 z"
         id="path4455" />
    </g>
    <g
       style="fill:#002d00;fill-opacity:1"
       transform="matrix(1,0,0,-1,2.2172877,2484.6908)"
       id="g4457">
      <path
         style="fill:#002d00;fill-opacity:1;stroke:none"
         d="m 223.80433,1051.129 c 0,0 -8.13554,-49.9723 -44.32812,-85.42287 -36.19259,-35.45049 -75.07463,-59.8211 -75.07463,-59.8211 0,0 52.80811,2.15228 72.79668,20.87016 19.98856,18.71787 -24.52555,-57.15053 -24.52555,-57.15053 0,0 82.68335,32.8695 74.8594,65.10189 -7.82394,32.2324 6.61179,-62.39173 6.61179,-62.39173 0,0 38.26565,44.48656 23.39086,75.00749 -14.87478,30.52091 24.24319,-20.7806 24.24319,-20.7806 0,0 -2.54316,32.44764 -18.48373,54.17695 -15.94056,21.72934 -39.97884,72.42484 -39.48989,70.41034 z"
         id="path4459" />
      <path
         id="path4461"
         d="m 223.36948,1047.476 c 0,0 46.01015,-21.1303 95.62317,-10.8742 49.61304,10.2559 91.5317,28.9259 91.5317,28.9259 0,0 -31.25013,-42.6235 -57.9362,-48.768 -26.68607,-6.1446 61.11188,-11.5336 61.11188,-11.5336 0,0 -73.41041,-50.27784 -95.79405,-25.80103 -22.38363,24.47683 48.08854,-40.29811 48.08854,-40.29811 0,0 -58.26854,-6.93478 -75.29789,22.43847 -17.02933,29.37323 3.71901,-31.71333 3.71901,-31.71333 0,0 -25.50866,20.21449 -34.64737,45.56699 -9.13872,25.35251 -37.79772,73.58661 -36.39879,72.05691 z"
         style="fill:#002d00;fill-opacity:1;stroke:none" />
    </g>
    <g
       style="fill:#005600;fill-opacity:1"
       inkscape:transform-center-y="18.118142"
       inkscape:transform-center-x="108.70886"
       id="g4463"
       transform="matrix(0.49359583,0.86969142,0.86969142,-0.49359583,-960.22647,1766.3973)">
      <path
         id="path4465"
         d="m 223.80433,1051.129 c 0,0 -8.13554,-49.9723 -44.32812,-85.42287 -36.19259,-35.45049 -75.07463,-59.8211 -75.07463,-59.8211 0,0 52.80811,2.15228 72.79668,20.87016 19.98856,18.71787 -24.52555,-57.15053 -24.52555,-57.15053 0,0 82.68335,32.8695 74.8594,65.10189 -7.82394,32.2324 6.61179,-62.39173 6.61179,-62.39173 0,0 38.26565,44.48656 23.39086,75.00749 -14.87478,30.52091 24.24319,-20.7806 24.24319,-20.7806 0,0 -2.54316,32.44764 -18.48373,54.17695 -15.94056,21.72934 -39.97884,72.42484 -39.48989,70.41034 z"
         style="fill:#005600;fill-opacity:1;stroke:none" />
      <path
         style="fill:#005600;fill-opacity:1;stroke:none"
         d="m 223.36948,1047.476 c 0,0 46.01015,-21.1303 95.62317,-10.8742 49.61304,10.2559 91.5317,28.9259 91.5317,28.9259 0,0 -31.25013,-42.6235 -57.9362,-48.768 -26.68607,-6.1446 61.11188,-11.5336 61.11188,-11.5336 0,0 -73.41041,-50.27784 -95.79405,-25.80103 -22.38363,24.47683 48.08854,-40.29811 48.08854,-40.29811 0,0 -58.26854,-6.93478 -75.29789,22.43847 -17.02933,29.37323 3.71901,-31.71333 3.71901,-31.71333 0,0 -25.50866,20.21449 -34.64737,45.56699 -9.13872,25.35251 -37.79772,73.58661 -36.39879,72.05691 z"
         id="path4467" />
    </g>
    <path
       id="path4469"
       d="m 78.056778,1439.6012 c 0,0 -8.13554,49.9723 -44.32812,85.4229 -36.1925903,35.4505 -75.07463,59.8211 -75.07463,59.8211 0,0 52.80811,-2.1523 72.79668,-20.8702 19.98856,-18.7179 -24.5255503,57.1505 -24.5255503,57.1505 0,0 82.6833503,-32.8695 74.8594003,-65.1018 -7.82394,-32.2324 6.61179,62.3917 6.61179,62.3917 0,0 38.265652,-44.4866 23.390862,-75.0075 -14.874782,-30.5209 24.24319,20.7806 24.24319,20.7806 0,0 -2.54316,-32.4476 -18.48373,-54.177 -15.94056,-21.7293 -39.978842,-72.4248 -39.489892,-70.4103 z"
       style="fill:#008000;stroke:none" />
    <path
       style="fill:#008000;stroke:none"
       d="m 77.621928,1443.2542 c 0,0 46.010152,21.1303 95.623172,10.8742 49.61304,-10.2559 91.5317,-28.9259 91.5317,-28.9259 0,0 -31.25013,42.6235 -57.9362,48.768 -26.68607,6.1446 61.11188,11.5336 61.11188,11.5336 0,0 -73.41041,50.2778 -95.79405,25.801 -22.38363,-24.4768 48.08854,40.2981 48.08854,40.2981 0,0 -58.26854,6.9348 -75.29789,-22.4384 -17.02933,-29.3733 3.71901,31.7133 3.71901,31.7133 0,0 -25.50866,-20.2145 -34.64737,-45.567 -9.13872,-25.3525 -37.797722,-73.5866 -36.398792,-72.0569 z"
       id="path4471" />
    <g
       transform="matrix(1,0,0,-1,-145.74755,2490.7302)"
       id="g4473">
      <path
         id="path4475"
         d="m 223.80433,1051.129 c 0,0 -8.13554,-49.9723 -44.32812,-85.42287 -36.19259,-35.45049 -75.07463,-59.8211 -75.07463,-59.8211 0,0 52.80811,2.15228 72.79668,20.87016 19.98856,18.71787 -24.52555,-57.15053 -24.52555,-57.15053 0,0 82.68335,32.8695 74.8594,65.10189 -7.82394,32.2324 6.61179,-62.39173 6.61179,-62.39173 0,0 38.26565,44.48656 23.39086,75.00749 -14.87478,30.52091 24.24319,-20.7806 24.24319,-20.7806 0,0 -2.54316,32.44764 -18.48373,54.17695 -15.94056,21.72934 -39.97884,72.42484 -39.48989,70.41034 z"
         style="fill:#008000;stroke:none" />
      <path
         style="fill:#008000;stroke:none"
         d="m 223.36948,1047.476 c 0,0 46.01015,-21.1303 95.62317,-10.8742 49.61304,10.2559 91.5317,28.9259 91.5317,28.9259 0,0 -31.25013,-42.6235 -57.9362,-48.768 -26.68607,-6.1446 61.11188,-11.5336 61.11188,-11.5336 0,0 -73.41041,-50.27784 -95.79405,-25.80103 -22.38363,24.47683 48.08854,-40.29811 48.08854,-40.29811 0,0 -58.26854,-6.93478 -75.29789,22.43847 -17.02933,29.37323 3.71901,-31.71333 3.71901,-31.71333 0,0 -25.50866,20.21449 -34.64737,45.56699 -9.13872,25.35251 -37.79772,73.58661 -36.39879,72.05691 z"
         id="path4477" />
    </g>
    <g
       id="g4479"
       transform="matrix(1,0,0,-1,545.05256,2480.2291)"
       style="fill:#002d00;fill-opacity:1">
      <path
         id="path4481"
         d="m 223.80433,1051.129 c 0,0 -8.13554,-49.9723 -44.32812,-85.42287 -36.19259,-35.45049 -75.07463,-59.8211 -75.07463,-59.8211 0,0 52.80811,2.15228 72.79668,20.87016 19.98856,18.71787 -24.52555,-57.15053 -24.52555,-57.15053 0,0 82.68335,32.8695 74.8594,65.10189 -7.82394,32.2324 6.61179,-62.39173 6.61179,-62.39173 0,0 38.26565,44.48656 23.39086,75.00749 -14.87478,30.52091 24.24319,-20.7806 24.24319,-20.7806 0,0 -2.54316,32.44764 -18.48373,54.17695 -15.94056,21.72934 -39.97884,72.42484 -39.48989,70.41034 z"
         style="fill:#002d00;fill-opacity:1;stroke:none" />
      <path
         style="fill:#002d00;fill-opacity:1;stroke:none"
         d="m 223.36948,1047.476 c 0,0 46.01015,-21.1303 95.62317,-10.8742 49.61304,10.2559 91.5317,28.9259 91.5317,28.9259 0,0 -31.25013,-42.6235 -57.9362,-48.768 -26.68607,-6.1446 61.11188,-11.5336 61.11188,-11.5336 0,0 -73.41041,-50.27784 -95.79405,-25.80103 -22.38363,24.47683 48.08854,-40.29811 48.08854,-40.29811 0,0 -58.26854,-6.93478 -75.29789,22.43847 -17.02933,29.37323 3.71901,-31.71333 3.71901,-31.71333 0,0 -25.50866,20.21449 -34.64737,45.56699 -9.13872,25.35251 -37.79772,73.58661 -36.39879,72.05691 z"
         id="path4483" />
    </g>
    <g
       transform="matrix(0.49359583,0.86969142,0.86969142,-0.49359583,-417.3912,1761.9357)"
       id="g4485"
       inkscape:transform-center-x="108.70886"
       inkscape:transform-center-y="18.118142"
       style="fill:#005600;fill-opacity:1">
      <path
         style="fill:#005600;fill-opacity:1;stroke:none"
         d="m 223.80433,1051.129 c 0,0 -8.13554,-49.9723 -44.32812,-85.42287 -36.19259,-35.45049 -75.07463,-59.8211 -75.07463,-59.8211 0,0 52.80811,2.15228 72.79668,20.87016 19.98856,18.71787 -24.52555,-57.15053 -24.52555,-57.15053 0,0 82.68335,32.8695 74.8594,65.10189 -7.82394,32.2324 6.61179,-62.39173 6.61179,-62.39173 0,0 38.26565,44.48656 23.39086,75.00749 -14.87478,30.52091 24.24319,-20.7806 24.24319,-20.7806 0,0 -2.54316,32.44764 -18.48373,54.17695 -15.94056,21.72934 -39.97884,72.42484 -39.48989,70.41034 z"
         id="path4487" />
      <path
         id="path4489"
         d="m 223.36948,1047.476 c 0,0 46.01015,-21.1303 95.62317,-10.8742 49.61304,10.2559 91.5317,28.9259 91.5317,28.9259 0,0 -31.25013,-42.6235 -57.9362,-48.768 -26.68607,-6.1446 61.11188,-11.5336 61.11188,-11.5336 0,0 -73.41041,-50.27784 -95.79405,-25.80103 -22.38363,24.47683 48.08854,-40.29811 48.08854,-40.29811 0,0 -58.26854,-6.93478 -75.29789,22.43847 -17.02933,29.37323 3.71901,-31.71333 3.71901,-31.71333 0,0 -25.50866,20.21449 -34.64737,45.56699 -9.13872,25.35251 -37.79772,73.58661 -36.39879,72.05691 z"
         style="fill:#005600;fill-opacity:1;stroke:none" />
    </g>
    <path
       style="fill:#008000;stroke:none"
       d="m 620.89205,1435.1395 c 0,0 -8.13554,49.9723 -44.32812,85.4229 -36.19259,35.4505 -75.07463,59.8211 -75.07463,59.8211 0,0 52.80811,-2.1523 72.79668,-20.8701 19.98856,-18.7179 -24.52555,57.1505 -24.52555,57.1505 0,0 82.68335,-32.8695 74.8594,-65.1019 -7.82394,-32.2324 6.61179,62.3917 6.61179,62.3917 0,0 38.26565,-44.4865 23.39086,-75.0075 -14.87478,-30.5209 24.24319,20.7806 24.24319,20.7806 0,0 -2.54316,-32.4476 -18.48373,-54.1769 -15.94056,-21.7294 -39.97884,-72.4249 -39.48989,-70.4104 z"
       id="path4491" />
    <path
       id="path4493"
       d="m 620.4572,1438.7925 c 0,0 46.01015,21.1303 95.62317,10.8742 49.61304,-10.2559 91.5317,-28.9259 91.5317,-28.9259 0,0 -31.25013,42.6235 -57.9362,48.768 -26.68607,6.1446 61.11188,11.5336 61.11188,11.5336 0,0 -73.41041,50.2779 -95.79405,25.8011 -22.38363,-24.4769 48.08854,40.2981 48.08854,40.2981 0,0 -58.26854,6.9348 -75.29789,-22.4385 -17.02933,-29.3732 3.71901,31.7133 3.71901,31.7133 0,0 -25.50866,-20.2144 -34.64737,-45.5669 -9.13872,-25.3526 -37.79772,-73.5867 -36.39879,-72.057 z"
       style="fill:#008000;stroke:none" />
    <g
       id="g4495"
       transform="matrix(1,0,0,-1,397.08772,2486.2685)">
      <path
         style="fill:#008000;stroke:none"
         d="m 223.80433,1051.129 c 0,0 -8.13554,-49.9723 -44.32812,-85.42287 -36.19259,-35.45049 -75.07463,-59.8211 -75.07463,-59.8211 0,0 52.80811,2.15228 72.79668,20.87016 19.98856,18.71787 -24.52555,-57.15053 -24.52555,-57.15053 0,0 82.68335,32.8695 74.8594,65.10189 -7.82394,32.2324 6.61179,-62.39173 6.61179,-62.39173 0,0 38.26565,44.48656 23.39086,75.00749 -14.87478,30.52091 24.24319,-20.7806 24.24319,-20.7806 0,0 -2.54316,32.44764 -18.48373,54.17695 -15.94056,21.72934 -39.97884,72.42484 -39.48989,70.41034 z"
         id="path4497" />
      <path
         id="path4499"
         d="m 223.36948,1047.476 c 0,0 46.01015,-21.1303 95.62317,-10.8742 49.61304,10.2559 91.5317,28.9259 91.5317,28.9259 0,0 -31.25013,-42.6235 -57.9362,-48.768 -26.68607,-6.1446 61.11188,-11.5336 61.11188,-11.5336 0,0 -73.41041,-50.27784 -95.79405,-25.80103 -22.38363,24.47683 48.08854,-40.29811 48.08854,-40.29811 0,0 -58.26854,-6.93478 -75.29789,22.43847 -17.02933,29.37323 3.71901,-31.71333 3.71901,-31.71333 0,0 -25.50866,20.21449 -34.64737,45.56699 -9.13872,25.35251 -37.79772,73.58661 -36.39879,72.05691 z"
         style="fill:#008000;stroke:none" />
    </g>
    <g
       style="fill:#009400;fill-opacity:1"
       inkscape:transform-center-y="65.627775"
       inkscape:transform-center-x="89.043672"
       id="g4501"
       transform="matrix(0.86987659,0.49326943,0.49326943,-0.86987659,-311.84124,2210.4071)">
      <path
         id="path4503"
         d="m 223.80433,1051.129 c 0,0 -8.13554,-49.9723 -44.32812,-85.42287 -36.19259,-35.45049 -75.07463,-59.8211 -75.07463,-59.8211 0,0 52.80811,2.15228 72.79668,20.87016 19.98856,18.71787 -24.52555,-57.15053 -24.52555,-57.15053 0,0 82.68335,32.8695 74.8594,65.10189 -7.82394,32.2324 6.61179,-62.39173 6.61179,-62.39173 0,0 38.26565,44.48656 23.39086,75.00749 -14.87478,30.52091 24.24319,-20.7806 24.24319,-20.7806 0,0 -2.54316,32.44764 -18.48373,54.17695 -15.94056,21.72934 -39.97884,72.42484 -39.48989,70.41034 z"
         style="fill:#009400;fill-opacity:1;stroke:none" />
      <path
         style="fill:#009400;fill-opacity:1;stroke:none"
         d="m 223.36948,1047.476 c 0,0 46.01015,-21.1303 95.62317,-10.8742 49.61304,10.2559 91.5317,28.9259 91.5317,28.9259 0,0 -31.25013,-42.6235 -57.9362,-48.768 -26.68607,-6.1446 61.11188,-11.5336 61.11188,-11.5336 0,0 -73.41041,-50.27784 -95.79405,-25.80103 -22.38363,24.47683 48.08854,-40.29811 48.08854,-40.29811 0,0 -58.26854,-6.93478 -75.29789,22.43847 -17.02933,29.37323 3.71901,-31.71333 3.71901,-31.71333 0,0 -25.50866,20.21449 -34.64737,45.56699 -9.13872,25.35251 -37.79772,73.58661 -36.39879,72.05691 z"
         id="path4505" />
    </g>
    <g
       id="g4507"
       transform="matrix(1,0,0,-1,1082.8549,2484.6908)"
       style="fill:#002d00;fill-opacity:1">
      <path
         id="path4509"
         d="m 223.80433,1051.129 c 0,0 -8.13554,-49.9723 -44.32812,-85.42287 -36.19259,-35.45049 -75.07463,-59.8211 -75.07463,-59.8211 0,0 52.80811,2.15228 72.79668,20.87016 19.98856,18.71787 -24.52555,-57.15053 -24.52555,-57.15053 0,0 82.68335,32.8695 74.8594,65.10189 -7.82394,32.2324 6.61179,-62.39173 6.61179,-62.39173 0,0 38.26565,44.48656 23.39086,75.00749 -14.87478,30.52091 24.24319,-20.7806 24.24319,-20.7806 0,0 -2.54316,32.44764 -18.48373,54.17695 -15.94056,21.72934 -39.97884,72.42484 -39.48989,70.41034 z"
         style="fill:#002d00;fill-opacity:1;stroke:none" />
      <path
         style="fill:#002d00;fill-opacity:1;stroke:none"
         d="m 223.36948,1047.476 c 0,0 46.01015,-21.1303 95.62317,-10.8742 49.61304,10.2559 91.5317,28.9259 91.5317,28.9259 0,0 -31.25013,-42.6235 -57.9362,-48.768 -26.68607,-6.1446 61.11188,-11.5336 61.11188,-11.5336 0,0 -73.41041,-50.27784 -95.79405,-25.80103 -22.38363,24.47683 48.08854,-40.29811 48.08854,-40.29811 0,0 -58.26854,-6.93478 -75.29789,22.43847 -17.02933,29.37323 3.71901,-31.71333 3.71901,-31.71333 0,0 -25.50866,20.21449 -34.64737,45.56699 -9.13872,25.35251 -37.79772,73.58661 -36.39879,72.05691 z"
         id="path4511" />
    </g>
    <g
       transform="matrix(0.49359583,0.86969142,0.86969142,-0.49359583,120.41115,1766.3973)"
       id="g4513"
       inkscape:transform-center-x="108.70886"
       inkscape:transform-center-y="18.118142"
       style="fill:#005600;fill-opacity:1">
      <path
         style="fill:#005600;fill-opacity:1;stroke:none"
         d="m 223.80433,1051.129 c 0,0 -8.13554,-49.9723 -44.32812,-85.42287 -36.19259,-35.45049 -75.07463,-59.8211 -75.07463,-59.8211 0,0 52.80811,2.15228 72.79668,20.87016 19.98856,18.71787 -24.52555,-57.15053 -24.52555,-57.15053 0,0 82.68335,32.8695 74.8594,65.10189 -7.82394,32.2324 6.61179,-62.39173 6.61179,-62.39173 0,0 38.26565,44.48656 23.39086,75.00749 -14.87478,30.52091 24.24319,-20.7806 24.24319,-20.7806 0,0 -2.54316,32.44764 -18.48373,54.17695 -15.94056,21.72934 -39.97884,72.42484 -39.48989,70.41034 z"
         id="path4515" />
      <path
         id="path4517"
         d="m 223.36948,1047.476 c 0,0 46.01015,-21.1303 95.62317,-10.8742 49.61304,10.2559 91.5317,28.9259 91.5317,28.9259 0,0 -31.25013,-42.6235 -57.9362,-48.768 -26.68607,-6.1446 61.11188,-11.5336 61.11188,-11.5336 0,0 -73.41041,-50.27784 -95.79405,-25.80103 -22.38363,24.47683 48.08854,-40.29811 48.08854,-40.29811 0,0 -58.26854,-6.93478 -75.29789,22.43847 -17.02933,29.37323 3.71901,-31.71333 3.71901,-31.71333 0,0 -25.50866,20.21449 -34.64737,45.56699 -9.13872,25.35251 -37.79772,73.58661 -36.39879,72.05691 z"
         style="fill:#005600;fill-opacity:1;stroke:none" />
    </g>
    <path
       style="fill:#008000;stroke:none"
       d="m 1158.6944,1439.6012 c 0,0 -8.1356,49.9723 -44.3282,85.4229 -36.1925,35.4505 -75.0746,59.8211 -75.0746,59.8211 0,0 52.8081,-2.1523 72.7967,-20.8702 19.9886,-18.7179 -24.5256,57.1505 -24.5256,57.1505 0,0 82.6834,-32.8695 74.8594,-65.1018 -7.8239,-32.2324 6.6118,62.3917 6.6118,62.3917 0,0 38.2657,-44.4866 23.3909,-75.0075 -14.8748,-30.5209 24.2432,20.7806 24.2432,20.7806 0,0 -2.5432,-32.4476 -18.4837,-54.177 -15.9406,-21.7293 -39.9789,-72.4248 -39.4899,-70.4103 z"
       id="path4519" />
    <path
       id="path4521"
       d="m 1158.2595,1443.2542 c 0,0 46.0102,21.1303 95.6232,10.8742 49.613,-10.2559 91.5317,-28.9259 91.5317,-28.9259 0,0 -31.2501,42.6235 -57.9362,48.768 -26.6861,6.1446 61.1119,11.5336 61.1119,11.5336 0,0 -73.4104,50.2778 -95.7941,25.801 -22.3836,-24.4768 48.0886,40.2981 48.0886,40.2981 0,0 -58.2686,6.9348 -75.2979,-22.4384 -17.0294,-29.3733 3.719,31.7133 3.719,31.7133 0,0 -25.5087,-20.2145 -34.6474,-45.567 -9.1387,-25.3525 -37.7977,-73.5866 -36.3988,-72.0569 z"
       style="fill:#008000;stroke:none" />
    <g
       id="g4523"
       transform="matrix(1,0,0,-1,934.89007,2490.7302)">
      <path
         style="fill:#008000;stroke:none"
         d="m 223.80433,1051.129 c 0,0 -8.13554,-49.9723 -44.32812,-85.42287 -36.19259,-35.45049 -75.07463,-59.8211 -75.07463,-59.8211 0,0 52.80811,2.15228 72.79668,20.87016 19.98856,18.71787 -24.52555,-57.15053 -24.52555,-57.15053 0,0 82.68335,32.8695 74.8594,65.10189 -7.82394,32.2324 6.61179,-62.39173 6.61179,-62.39173 0,0 38.26565,44.48656 23.39086,75.00749 -14.87478,30.52091 24.24319,-20.7806 24.24319,-20.7806 0,0 -2.54316,32.44764 -18.48373,54.17695 -15.94056,21.72934 -39.97884,72.42484 -39.48989,70.41034 z"
         id="path4525" />
      <path
         id="path4527"
         d="m 223.36948,1047.476 c 0,0 46.01015,-21.1303 95.62317,-10.8742 49.61304,10.2559 91.5317,28.9259 91.5317,28.9259 0,0 -31.25013,-42.6235 -57.9362,-48.768 -26.68607,-6.1446 61.11188,-11.5336 61.11188,-11.5336 0,0 -73.41041,-50.27784 -95.79405,-25.80103 -22.38363,24.47683 48.08854,-40.29811 48.08854,-40.29811 0,0 -58.26854,-6.93478 -75.29789,22.43847 -17.02933,29.37323 3.71901,-31.71333 3.71901,-31.71333 0,0 -25.50866,20.21449 -34.64737,45.56699 -9.13872,25.35251 -37.79772,73.58661 -36.39879,72.05691 z"
         style="fill:#008000;stroke:none" />
    </g>
    <g
       style="fill:#002d00;fill-opacity:1"
       transform="matrix(1,0,0,-1,1625.6901,2480.2291)"
       id="g4529">
      <path
         style="fill:#002d00;fill-opacity:1;stroke:none"
         d="m 223.80433,1051.129 c 0,0 -8.13554,-49.9723 -44.32812,-85.42287 -36.19259,-35.45049 -75.07463,-59.8211 -75.07463,-59.8211 0,0 52.80811,2.15228 72.79668,20.87016 19.98856,18.71787 -24.52555,-57.15053 -24.52555,-57.15053 0,0 82.68335,32.8695 74.8594,65.10189 -7.82394,32.2324 6.61179,-62.39173 6.61179,-62.39173 0,0 38.26565,44.48656 23.39086,75.00749 -14.87478,30.52091 24.24319,-20.7806 24.24319,-20.7806 0,0 -2.54316,32.44764 -18.48373,54.17695 -15.94056,21.72934 -39.97884,72.42484 -39.48989,70.41034 z"
         id="path4531" />
      <path
         id="path4533"
         d="m 223.36948,1047.476 c 0,0 46.01015,-21.1303 95.62317,-10.8742 49.61304,10.2559 91.5317,28.9259 91.5317,28.9259 0,0 -31.25013,-42.6235 -57.9362,-48.768 -26.68607,-6.1446 61.11188,-11.5336 61.11188,-11.5336 0,0 -73.41041,-50.27784 -95.79405,-25.80103 -22.38363,24.47683 48.08854,-40.29811 48.08854,-40.29811 0,0 -58.26854,-6.93478 -75.29789,22.43847 -17.02933,29.37323 3.71901,-31.71333 3.71901,-31.71333 0,0 -25.50866,20.21449 -34.64737,45.56699 -9.13872,25.35251 -37.79772,73.58661 -36.39879,72.05691 z"
         style="fill:#002d00;fill-opacity:1;stroke:none" />
    </g>
    <g
       style="fill:#005600;fill-opacity:1"
       inkscape:transform-center-y="18.118142"
       inkscape:transform-center-x="108.70886"
       id="g4535"
       transform="matrix(0.49359583,0.86969142,0.86969142,-0.49359583,663.24642,1761.9357)">
      <path
         id="path4537"
         d="m 223.80433,1051.129 c 0,0 -8.13554,-49.9723 -44.32812,-85.42287 -36.19259,-35.45049 -75.07463,-59.8211 -75.07463,-59.8211 0,0 52.80811,2.15228 72.79668,20.87016 19.98856,18.71787 -24.52555,-57.15053 -24.52555,-57.15053 0,0 82.68335,32.8695 74.8594,65.10189 -7.82394,32.2324 6.61179,-62.39173 6.61179,-62.39173 0,0 38.26565,44.48656 23.39086,75.00749 -14.87478,30.52091 24.24319,-20.7806 24.24319,-20.7806 0,0 -2.54316,32.44764 -18.48373,54.17695 -15.94056,21.72934 -39.97884,72.42484 -39.48989,70.41034 z"
         style="fill:#005600;fill-opacity:1;stroke:none" />
      <path
         style="fill:#005600;fill-opacity:1;stroke:none"
         d="m 223.36948,1047.476 c 0,0 46.01015,-21.1303 95.62317,-10.8742 49.61304,10.2559 91.5317,28.9259 91.5317,28.9259 0,0 -31.25013,-42.6235 -57.9362,-48.768 -26.68607,-6.1446 61.11188,-11.5336 61.11188,-11.5336 0,0 -73.41041,-50.27784 -95.79405,-25.80103 -22.38363,24.47683 48.08854,-40.29811 48.08854,-40.29811 0,0 -58.26854,-6.93478 -75.29789,22.43847 -17.02933,29.37323 3.71901,-31.71333 3.71901,-31.71333 0,0 -25.50866,20.21449 -34.64737,45.56699 -9.13872,25.35251 -37.79772,73.58661 -36.39879,72.05691 z"
         id="path4539" />
    </g>
    <path
       id="path4541"
       d="m 1701.5296,1435.1395 c 0,0 -8.1355,49.9723 -44.3281,85.4229 -36.1926,35.4505 -75.0746,59.8211 -75.0746,59.8211 0,0 52.8081,-2.1523 72.7967,-20.8701 19.9885,-18.7179 -24.5256,57.1505 -24.5256,57.1505 0,0 82.6834,-32.8695 74.8594,-65.1019 -7.8239,-32.2324 6.6118,62.3917 6.6118,62.3917 0,0 38.2657,-44.4865 23.3909,-75.0075 -14.8748,-30.5209 24.2432,20.7806 24.2432,20.7806 0,0 -2.5432,-32.4476 -18.4838,-54.1769 -15.9405,-21.7294 -39.9788,-72.4249 -39.4899,-70.4104 z"
       style="fill:#008000;stroke:none" />
    <path
       style="fill:#008000;stroke:none"
       d="m 1701.0948,1438.7925 c 0,0 46.0101,21.1303 95.6232,10.8742 49.613,-10.2559 91.5317,-28.9259 91.5317,-28.9259 0,0 -31.2502,42.6235 -57.9362,48.768 -26.6861,6.1446 61.1118,11.5336 61.1118,11.5336 0,0 -73.4104,50.2779 -95.794,25.8011 -22.3836,-24.4769 48.0885,40.2981 48.0885,40.2981 0,0 -58.2685,6.9348 -75.2979,-22.4385 -17.0293,-29.3732 3.719,31.7133 3.719,31.7133 0,0 -25.5086,-20.2144 -34.6473,-45.5669 -9.1387,-25.3526 -37.7977,-73.5867 -36.3988,-72.057 z"
       id="path4543" />
    <g
       transform="matrix(1,0,0,-1,1477.7253,2486.2685)"
       id="g4545">
      <path
         id="path4547"
         d="m 223.80433,1051.129 c 0,0 -8.13554,-49.9723 -44.32812,-85.42287 -36.19259,-35.45049 -75.07463,-59.8211 -75.07463,-59.8211 0,0 52.80811,2.15228 72.79668,20.87016 19.98856,18.71787 -24.52555,-57.15053 -24.52555,-57.15053 0,0 82.68335,32.8695 74.8594,65.10189 -7.82394,32.2324 6.61179,-62.39173 6.61179,-62.39173 0,0 38.26565,44.48656 23.39086,75.00749 -14.87478,30.52091 24.24319,-20.7806 24.24319,-20.7806 0,0 -2.54316,32.44764 -18.48373,54.17695 -15.94056,21.72934 -39.97884,72.42484 -39.48989,70.41034 z"
         style="fill:#008000;stroke:none" />
      <path
         style="fill:#008000;stroke:none"
         d="m 223.36948,1047.476 c 0,0 46.01015,-21.1303 95.62317,-10.8742 49.61304,10.2559 91.5317,28.9259 91.5317,28.9259 0,0 -31.25013,-42.6235 -57.9362,-48.768 -26.68607,-6.1446 61.11188,-11.5336 61.11188,-11.5336 0,0 -73.41041,-50.27784 -95.79405,-25.80103 -22.38363,24.47683 48.08854,-40.29811 48.08854,-40.29811 0,0 -58.26854,-6.93478 -75.29789,22.43847 -17.02933,29.37323 3.71901,-31.71333 3.71901,-31.71333 0,0 -25.50866,20.21449 -34.64737,45.56699 -9.13872,25.35251 -37.79772,73.58661 -36.39879,72.05691 z"
         id="path4549" />
    </g>
    <g
       transform="matrix(0.86987659,0.49326943,0.49326943,-0.86987659,768.79638,2210.4071)"
       id="g4551"
       inkscape:transform-center-x="89.043672"
       inkscape:transform-center-y="65.627775"
       style="fill:#009400;fill-opacity:1">
      <path
         style="fill:#009400;fill-opacity:1;stroke:none"
         d="m 223.80433,1051.129 c 0,0 -8.13554,-49.9723 -44.32812,-85.42287 -36.19259,-35.45049 -75.07463,-59.8211 -75.07463,-59.8211 0,0 52.80811,2.15228 72.79668,20.87016 19.98856,18.71787 -24.52555,-57.15053 -24.52555,-57.15053 0,0 82.68335,32.8695 74.8594,65.10189 -7.82394,32.2324 6.61179,-62.39173 6.61179,-62.39173 0,0 38.26565,44.48656 23.39086,75.00749 -14.87478,30.52091 24.24319,-20.7806 24.24319,-20.7806 0,0 -2.54316,32.44764 -18.48373,54.17695 -15.94056,21.72934 -39.97884,72.42484 -39.48989,70.41034 z"
         id="path4553" />
      <path
         id="path4555"
         d="m 223.36948,1047.476 c 0,0 46.01015,-21.1303 95.62317,-10.8742 49.61304,10.2559 91.5317,28.9259 91.5317,28.9259 0,0 -31.25013,-42.6235 -57.9362,-48.768 -26.68607,-6.1446 61.11188,-11.5336 61.11188,-11.5336 0,0 -73.41041,-50.27784 -95.79405,-25.80103 -22.38363,24.47683 48.08854,-40.29811 48.08854,-40.29811 0,0 -58.26854,-6.93478 -75.29789,22.43847 -17.02933,29.37323 3.71901,-31.71333 3.71901,-31.71333 0,0 -25.50866,20.21449 -34.64737,45.56699 -9.13872,25.35251 -37.79772,73.58661 -36.39879,72.05691 z"
         style="fill:#009400;fill-opacity:1;stroke:none" />
    </g>
    <g
       id="g4607"
       transform="matrix(0,-1,1,0,354.09596,1248.2666)">
      <g
         style="fill:#002d00;fill-opacity:1"
         transform="matrix(1,0,0,-1,2.2172877,2622.6767)"
         id="g4557">
        <path
           style="fill:#002d00;fill-opacity:1;stroke:none"
           d="m 223.80433,1051.129 c 0,0 -8.13554,-49.9723 -44.32812,-85.42287 -36.19259,-35.45049 -75.07463,-59.8211 -75.07463,-59.8211 0,0 52.80811,2.15228 72.79668,20.87016 19.98856,18.71787 -24.52555,-57.15053 -24.52555,-57.15053 0,0 82.68335,32.8695 74.8594,65.10189 -7.82394,32.2324 6.61179,-62.39173 6.61179,-62.39173 0,0 38.26565,44.48656 23.39086,75.00749 -14.87478,30.52091 24.24319,-20.7806 24.24319,-20.7806 0,0 -2.54316,32.44764 -18.48373,54.17695 -15.94056,21.72934 -39.97884,72.42484 -39.48989,70.41034 z"
           id="path4559" />
        <path
           id="path4561"
           d="m 223.36948,1047.476 c 0,0 46.01015,-21.1303 95.62317,-10.8742 49.61304,10.2559 91.5317,28.9259 91.5317,28.9259 0,0 -31.25013,-42.6235 -57.9362,-48.768 -26.68607,-6.1446 61.11188,-11.5336 61.11188,-11.5336 0,0 -73.41041,-50.27784 -95.79405,-25.80103 -22.38363,24.47683 48.08854,-40.29811 48.08854,-40.29811 0,0 -58.26854,-6.93478 -75.29789,22.43847 -17.02933,29.37323 3.71901,-31.71333 3.71901,-31.71333 0,0 -25.50866,20.21449 -34.64737,45.56699 -9.13872,25.35251 -37.79772,73.58661 -36.39879,72.05691 z"
           style="fill:#002d00;fill-opacity:1;stroke:none" />
      </g>
      <g
         style="fill:#005600;fill-opacity:1"
         inkscape:transform-center-y="18.118142"
         inkscape:transform-center-x="108.70886"
         id="g4563"
         transform="matrix(0.49359583,0.86969142,0.86969142,-0.49359583,-960.22647,1904.3832)">
        <path
           id="path4565"
           d="m 223.80433,1051.129 c 0,0 -8.13554,-49.9723 -44.32812,-85.42287 -36.19259,-35.45049 -75.07463,-59.8211 -75.07463,-59.8211 0,0 52.80811,2.15228 72.79668,20.87016 19.98856,18.71787 -24.52555,-57.15053 -24.52555,-57.15053 0,0 82.68335,32.8695 74.8594,65.10189 -7.82394,32.2324 6.61179,-62.39173 6.61179,-62.39173 0,0 38.26565,44.48656 23.39086,75.00749 -14.87478,30.52091 24.24319,-20.7806 24.24319,-20.7806 0,0 -2.54316,32.44764 -18.48373,54.17695 -15.94056,21.72934 -39.97884,72.42484 -39.48989,70.41034 z"
           style="fill:#005600;fill-opacity:1;stroke:none" />
        <path
           style="fill:#005600;fill-opacity:1;stroke:none"
           d="m 223.36948,1047.476 c 0,0 46.01015,-21.1303 95.62317,-10.8742 49.61304,10.2559 91.5317,28.9259 91.5317,28.9259 0,0 -31.25013,-42.6235 -57.9362,-48.768 -26.68607,-6.1446 61.11188,-11.5336 61.11188,-11.5336 0,0 -73.41041,-50.27784 -95.79405,-25.80103 -22.38363,24.47683 48.08854,-40.29811 48.08854,-40.29811 0,0 -58.26854,-6.93478 -75.29789,22.43847 -17.02933,29.37323 3.71901,-31.71333 3.71901,-31.71333 0,0 -25.50866,20.21449 -34.64737,45.56699 -9.13872,25.35251 -37.79772,73.58661 -36.39879,72.05691 z"
           id="path4567" />
      </g>
      <path
         id="path4569"
         d="m 78.056778,1577.5871 c 0,0 -8.13554,49.9723 -44.32812,85.4229 -36.1925903,35.4505 -75.07463,59.8211 -75.07463,59.8211 0,0 52.80811,-2.1523 72.79668,-20.8702 19.98856,-18.7179 -24.5255503,57.1505 -24.5255503,57.1505 0,0 82.6833503,-32.8695 74.8594003,-65.1018 -7.82394,-32.2324 6.61179,62.3917 6.61179,62.3917 0,0 38.265652,-44.4866 23.390862,-75.0075 -14.874782,-30.5209 24.24319,20.7806 24.24319,20.7806 0,0 -2.54316,-32.4476 -18.48373,-54.177 -15.94056,-21.7293 -39.978842,-72.4248 -39.489892,-70.4103 z"
         style="fill:#008000;stroke:none" />
      <path
         style="fill:#008000;stroke:none"
         d="m 77.621928,1581.2401 c 0,0 46.010152,21.1303 95.623172,10.8742 49.61304,-10.2559 91.5317,-28.9259 91.5317,-28.9259 0,0 -31.25013,42.6235 -57.9362,48.768 -26.68607,6.1446 61.11188,11.5336 61.11188,11.5336 0,0 -73.41041,50.2778 -95.79405,25.801 -22.38363,-24.4768 48.08854,40.2981 48.08854,40.2981 0,0 -58.26854,6.9348 -75.29789,-22.4384 -17.02933,-29.3733 3.71901,31.7133 3.71901,31.7133 0,0 -25.50866,-20.2145 -34.64737,-45.567 -9.13872,-25.3525 -37.797722,-73.5866 -36.398792,-72.0569 z"
         id="path4571" />
      <g
         transform="matrix(1,0,0,-1,-145.74755,2628.7161)"
         id="g4573">
        <path
           id="path4575"
           d="m 223.80433,1051.129 c 0,0 -8.13554,-49.9723 -44.32812,-85.42287 -36.19259,-35.45049 -75.07463,-59.8211 -75.07463,-59.8211 0,0 52.80811,2.15228 72.79668,20.87016 19.98856,18.71787 -24.52555,-57.15053 -24.52555,-57.15053 0,0 82.68335,32.8695 74.8594,65.10189 -7.82394,32.2324 6.61179,-62.39173 6.61179,-62.39173 0,0 38.26565,44.48656 23.39086,75.00749 -14.87478,30.52091 24.24319,-20.7806 24.24319,-20.7806 0,0 -2.54316,32.44764 -18.48373,54.17695 -15.94056,21.72934 -39.97884,72.42484 -39.48989,70.41034 z"
           style="fill:#008000;stroke:none" />
        <path
           style="fill:#008000;stroke:none"
           d="m 223.36948,1047.476 c 0,0 46.01015,-21.1303 95.62317,-10.8742 49.61304,10.2559 91.5317,28.9259 91.5317,28.9259 0,0 -31.25013,-42.6235 -57.9362,-48.768 -26.68607,-6.1446 61.11188,-11.5336 61.11188,-11.5336 0,0 -73.41041,-50.27784 -95.79405,-25.80103 -22.38363,24.47683 48.08854,-40.29811 48.08854,-40.29811 0,0 -58.26854,-6.93478 -75.29789,22.43847 -17.02933,29.37323 3.71901,-31.71333 3.71901,-31.71333 0,0 -25.50866,20.21449 -34.64737,45.56699 -9.13872,25.35251 -37.79772,73.58661 -36.39879,72.05691 z"
           id="path4577" />
      </g>
      <g
         id="g4579"
         transform="matrix(1,0,0,-1,545.05256,2618.215)"
         style="fill:#002d00;fill-opacity:1">
        <path
           id="path4581"
           d="m 223.80433,1051.129 c 0,0 -8.13554,-49.9723 -44.32812,-85.42287 -36.19259,-35.45049 -75.07463,-59.8211 -75.07463,-59.8211 0,0 52.80811,2.15228 72.79668,20.87016 19.98856,18.71787 -24.52555,-57.15053 -24.52555,-57.15053 0,0 82.68335,32.8695 74.8594,65.10189 -7.82394,32.2324 6.61179,-62.39173 6.61179,-62.39173 0,0 38.26565,44.48656 23.39086,75.00749 -14.87478,30.52091 24.24319,-20.7806 24.24319,-20.7806 0,0 -2.54316,32.44764 -18.48373,54.17695 -15.94056,21.72934 -39.97884,72.42484 -39.48989,70.41034 z"
           style="fill:#002d00;fill-opacity:1;stroke:none" />
        <path
           style="fill:#002d00;fill-opacity:1;stroke:none"
           d="m 223.36948,1047.476 c 0,0 46.01015,-21.1303 95.62317,-10.8742 49.61304,10.2559 91.5317,28.9259 91.5317,28.9259 0,0 -31.25013,-42.6235 -57.9362,-48.768 -26.68607,-6.1446 61.11188,-11.5336 61.11188,-11.5336 0,0 -73.41041,-50.27784 -95.79405,-25.80103 -22.38363,24.47683 48.08854,-40.29811 48.08854,-40.29811 0,0 -58.26854,-6.93478 -75.29789,22.43847 -17.02933,29.37323 3.71901,-31.71333 3.71901,-31.71333 0,0 -25.50866,20.21449 -34.64737,45.56699 -9.13872,25.35251 -37.79772,73.58661 -36.39879,72.05691 z"
           id="path4583" />
      </g>
      <g
         transform="matrix(0.49359583,0.86969142,0.86969142,-0.49359583,-417.3912,1899.9216)"
         id="g4585"
         inkscape:transform-center-x="108.70886"
         inkscape:transform-center-y="18.118142"
         style="fill:#005600;fill-opacity:1">
        <path
           style="fill:#005600;fill-opacity:1;stroke:none"
           d="m 223.80433,1051.129 c 0,0 -8.13554,-49.9723 -44.32812,-85.42287 -36.19259,-35.45049 -75.07463,-59.8211 -75.07463,-59.8211 0,0 52.80811,2.15228 72.79668,20.87016 19.98856,18.71787 -24.52555,-57.15053 -24.52555,-57.15053 0,0 82.68335,32.8695 74.8594,65.10189 -7.82394,32.2324 6.61179,-62.39173 6.61179,-62.39173 0,0 38.26565,44.48656 23.39086,75.00749 -14.87478,30.52091 24.24319,-20.7806 24.24319,-20.7806 0,0 -2.54316,32.44764 -18.48373,54.17695 -15.94056,21.72934 -39.97884,72.42484 -39.48989,70.41034 z"
           id="path4587" />
        <path
           id="path4589"
           d="m 223.36948,1047.476 c 0,0 46.01015,-21.1303 95.62317,-10.8742 49.61304,10.2559 91.5317,28.9259 91.5317,28.9259 0,0 -31.25013,-42.6235 -57.9362,-48.768 -26.68607,-6.1446 61.11188,-11.5336 61.11188,-11.5336 0,0 -73.41041,-50.27784 -95.79405,-25.80103 -22.38363,24.47683 48.08854,-40.29811 48.08854,-40.29811 0,0 -58.26854,-6.93478 -75.29789,22.43847 -17.02933,29.37323 3.71901,-31.71333 3.71901,-31.71333 0,0 -25.50866,20.21449 -34.64737,45.56699 -9.13872,25.35251 -37.79772,73.58661 -36.39879,72.05691 z"
           style="fill:#005600;fill-opacity:1;stroke:none" />
      </g>
      <path
         style="fill:#008000;stroke:none"
         d="m 620.89205,1573.1254 c 0,0 -8.13554,49.9723 -44.32812,85.4229 -36.19259,35.4505 -75.07463,59.8211 -75.07463,59.8211 0,0 52.80811,-2.1523 72.79668,-20.8701 19.98856,-18.7179 -24.52555,57.1505 -24.52555,57.1505 0,0 82.68335,-32.8695 74.8594,-65.1019 -7.82394,-32.2324 6.61179,62.3917 6.61179,62.3917 0,0 38.26565,-44.4865 23.39086,-75.0075 -14.87478,-30.5209 24.24319,20.7806 24.24319,20.7806 0,0 -2.54316,-32.4476 -18.48373,-54.1769 -15.94056,-21.7294 -39.97884,-72.4249 -39.48989,-70.4104 z"
         id="path4591" />
      <path
         id="path4593"
         d="m 620.4572,1576.7784 c 0,0 46.01015,21.1303 95.62317,10.8742 49.61304,-10.2559 91.5317,-28.9259 91.5317,-28.9259 0,0 -31.25013,42.6235 -57.9362,48.768 -26.68607,6.1446 61.11188,11.5336 61.11188,11.5336 0,0 -73.41041,50.2779 -95.79405,25.8011 -22.38363,-24.4769 48.08854,40.2981 48.08854,40.2981 0,0 -58.26854,6.9348 -75.29789,-22.4385 -17.02933,-29.3732 3.71901,31.7133 3.71901,31.7133 0,0 -25.50866,-20.2144 -34.64737,-45.5669 -9.13872,-25.3526 -37.79772,-73.5867 -36.39879,-72.057 z"
         style="fill:#008000;stroke:none" />
      <g
         id="g4595"
         transform="matrix(1,0,0,-1,397.08772,2624.2544)">
        <path
           style="fill:#008000;stroke:none"
           d="m 223.80433,1051.129 c 0,0 -8.13554,-49.9723 -44.32812,-85.42287 -36.19259,-35.45049 -75.07463,-59.8211 -75.07463,-59.8211 0,0 52.80811,2.15228 72.79668,20.87016 19.98856,18.71787 -24.52555,-57.15053 -24.52555,-57.15053 0,0 82.68335,32.8695 74.8594,65.10189 -7.82394,32.2324 6.61179,-62.39173 6.61179,-62.39173 0,0 38.26565,44.48656 23.39086,75.00749 -14.87478,30.52091 24.24319,-20.7806 24.24319,-20.7806 0,0 -2.54316,32.44764 -18.48373,54.17695 -15.94056,21.72934 -39.97884,72.42484 -39.48989,70.41034 z"
           id="path4597" />
        <path
           id="path4599"
           d="m 223.36948,1047.476 c 0,0 46.01015,-21.1303 95.62317,-10.8742 49.61304,10.2559 91.5317,28.9259 91.5317,28.9259 0,0 -31.25013,-42.6235 -57.9362,-48.768 -26.68607,-6.1446 61.11188,-11.5336 61.11188,-11.5336 0,0 -73.41041,-50.27784 -95.79405,-25.80103 -22.38363,24.47683 48.08854,-40.29811 48.08854,-40.29811 0,0 -58.26854,-6.93478 -75.29789,22.43847 -17.02933,29.37323 3.71901,-31.71333 3.71901,-31.71333 0,0 -25.50866,20.21449 -34.64737,45.56699 -9.13872,25.35251 -37.79772,73.58661 -36.39879,72.05691 z"
           style="fill:#008000;stroke:none" />
      </g>
      <g
         style="fill:#009400;fill-opacity:1"
         inkscape:transform-center-y="65.627775"
         inkscape:transform-center-x="89.043672"
         id="g4601"
         transform="matrix(0.86987659,0.49326943,0.49326943,-0.86987659,-311.84124,2348.393)">
        <path
           id="path4603"
           d="m 223.80433,1051.129 c 0,0 -8.13554,-49.9723 -44.32812,-85.42287 -36.19259,-35.45049 -75.07463,-59.8211 -75.07463,-59.8211 0,0 52.80811,2.15228 72.79668,20.87016 19.98856,18.71787 -24.52555,-57.15053 -24.52555,-57.15053 0,0 82.68335,32.8695 74.8594,65.10189 -7.82394,32.2324 6.61179,-62.39173 6.61179,-62.39173 0,0 38.26565,44.48656 23.39086,75.00749 -14.87478,30.52091 24.24319,-20.7806 24.24319,-20.7806 0,0 -2.54316,32.44764 -18.48373,54.17695 -15.94056,21.72934 -39.97884,72.42484 -39.48989,70.41034 z"
           style="fill:#009400;fill-opacity:1;stroke:none" />
        <path
           style="fill:#009400;fill-opacity:1;stroke:none"
           d="m 223.36948,1047.476 c 0,0 46.01015,-21.1303 95.62317,-10.8742 49.61304,10.2559 91.5317,28.9259 91.5317,28.9259 0,0 -31.25013,-42.6235 -57.9362,-48.768 -26.68607,-6.1446 61.11188,-11.5336 61.11188,-11.5336 0,0 -73.41041,-50.27784 -95.79405,-25.80103 -22.38363,24.47683 48.08854,-40.29811 48.08854,-40.29811 0,0 -58.26854,-6.93478 -75.29789,22.43847 -17.02933,29.37323 3.71901,-31.71333 3.71901,-31.71333 0,0 -25.50866,20.21449 -34.64737,45.56699 -9.13872,25.35251 -37.79772,73.58661 -36.39879,72.05691 z"
           id="path4605" />
      </g>
    </g>
    <g
       transform="matrix(0,-1,-1,0,1483.8676,1248.2666)"
       id="g4634">
      <g
         id="g4636"
         transform="matrix(1,0,0,-1,2.2172877,2622.6767)"
         style="fill:#002d00;fill-opacity:1">
        <path
           id="path4638"
           d="m 223.80433,1051.129 c 0,0 -8.13554,-49.9723 -44.32812,-85.42287 -36.19259,-35.45049 -75.07463,-59.8211 -75.07463,-59.8211 0,0 52.80811,2.15228 72.79668,20.87016 19.98856,18.71787 -24.52555,-57.15053 -24.52555,-57.15053 0,0 82.68335,32.8695 74.8594,65.10189 -7.82394,32.2324 6.61179,-62.39173 6.61179,-62.39173 0,0 38.26565,44.48656 23.39086,75.00749 -14.87478,30.52091 24.24319,-20.7806 24.24319,-20.7806 0,0 -2.54316,32.44764 -18.48373,54.17695 -15.94056,21.72934 -39.97884,72.42484 -39.48989,70.41034 z"
           style="fill:#002d00;fill-opacity:1;stroke:none" />
        <path
           style="fill:#002d00;fill-opacity:1;stroke:none"
           d="m 223.36948,1047.476 c 0,0 46.01015,-21.1303 95.62317,-10.8742 49.61304,10.2559 91.5317,28.9259 91.5317,28.9259 0,0 -31.25013,-42.6235 -57.9362,-48.768 -26.68607,-6.1446 61.11188,-11.5336 61.11188,-11.5336 0,0 -73.41041,-50.27784 -95.79405,-25.80103 -22.38363,24.47683 48.08854,-40.29811 48.08854,-40.29811 0,0 -58.26854,-6.93478 -75.29789,22.43847 -17.02933,29.37323 3.71901,-31.71333 3.71901,-31.71333 0,0 -25.50866,20.21449 -34.64737,45.56699 -9.13872,25.35251 -37.79772,73.58661 -36.39879,72.05691 z"
           id="path4640" />
      </g>
      <g
         transform="matrix(0.49359583,0.86969142,0.86969142,-0.49359583,-960.22647,1904.3832)"
         id="g4642"
         inkscape:transform-center-x="108.70886"
         inkscape:transform-center-y="18.118142"
         style="fill:#005600;fill-opacity:1">
        <path
           style="fill:#005600;fill-opacity:1;stroke:none"
           d="m 223.80433,1051.129 c 0,0 -8.13554,-49.9723 -44.32812,-85.42287 -36.19259,-35.45049 -75.07463,-59.8211 -75.07463,-59.8211 0,0 52.80811,2.15228 72.79668,20.87016 19.98856,18.71787 -24.52555,-57.15053 -24.52555,-57.15053 0,0 82.68335,32.8695 74.8594,65.10189 -7.82394,32.2324 6.61179,-62.39173 6.61179,-62.39173 0,0 38.26565,44.48656 23.39086,75.00749 -14.87478,30.52091 24.24319,-20.7806 24.24319,-20.7806 0,0 -2.54316,32.44764 -18.48373,54.17695 -15.94056,21.72934 -39.97884,72.42484 -39.48989,70.41034 z"
           id="path4644" />
        <path
           id="path4646"
           d="m 223.36948,1047.476 c 0,0 46.01015,-21.1303 95.62317,-10.8742 49.61304,10.2559 91.5317,28.9259 91.5317,28.9259 0,0 -31.25013,-42.6235 -57.9362,-48.768 -26.68607,-6.1446 61.11188,-11.5336 61.11188,-11.5336 0,0 -73.41041,-50.27784 -95.79405,-25.80103 -22.38363,24.47683 48.08854,-40.29811 48.08854,-40.29811 0,0 -58.26854,-6.93478 -75.29789,22.43847 -17.02933,29.37323 3.71901,-31.71333 3.71901,-31.71333 0,0 -25.50866,20.21449 -34.64737,45.56699 -9.13872,25.35251 -37.79772,73.58661 -36.39879,72.05691 z"
           style="fill:#005600;fill-opacity:1;stroke:none" />
      </g>
      <path
         style="fill:#008000;stroke:none"
         d="m 78.056778,1577.5871 c 0,0 -8.13554,49.9723 -44.32812,85.4229 -36.1925903,35.4505 -75.07463,59.8211 -75.07463,59.8211 0,0 52.80811,-2.1523 72.79668,-20.8702 19.98856,-18.7179 -24.5255503,57.1505 -24.5255503,57.1505 0,0 82.6833503,-32.8695 74.8594003,-65.1018 -7.82394,-32.2324 6.61179,62.3917 6.61179,62.3917 0,0 38.265652,-44.4866 23.390862,-75.0075 -14.874782,-30.5209 24.24319,20.7806 24.24319,20.7806 0,0 -2.54316,-32.4476 -18.48373,-54.177 -15.94056,-21.7293 -39.978842,-72.4248 -39.489892,-70.4103 z"
         id="path4648" />
      <path
         id="path4650"
         d="m 77.621928,1581.2401 c 0,0 46.010152,21.1303 95.623172,10.8742 49.61304,-10.2559 91.5317,-28.9259 91.5317,-28.9259 0,0 -31.25013,42.6235 -57.9362,48.768 -26.68607,6.1446 61.11188,11.5336 61.11188,11.5336 0,0 -73.41041,50.2778 -95.79405,25.801 -22.38363,-24.4768 48.08854,40.2981 48.08854,40.2981 0,0 -58.26854,6.9348 -75.29789,-22.4384 -17.02933,-29.3733 3.71901,31.7133 3.71901,31.7133 0,0 -25.50866,-20.2145 -34.64737,-45.567 -9.13872,-25.3525 -37.797722,-73.5866 -36.398792,-72.0569 z"
         style="fill:#008000;stroke:none" />
      <g
         id="g4652"
         transform="matrix(1,0,0,-1,-145.74755,2628.7161)">
        <path
           style="fill:#008000;stroke:none"
           d="m 223.80433,1051.129 c 0,0 -8.13554,-49.9723 -44.32812,-85.42287 -36.19259,-35.45049 -75.07463,-59.8211 -75.07463,-59.8211 0,0 52.80811,2.15228 72.79668,20.87016 19.98856,18.71787 -24.52555,-57.15053 -24.52555,-57.15053 0,0 82.68335,32.8695 74.8594,65.10189 -7.82394,32.2324 6.61179,-62.39173 6.61179,-62.39173 0,0 38.26565,44.48656 23.39086,75.00749 -14.87478,30.52091 24.24319,-20.7806 24.24319,-20.7806 0,0 -2.54316,32.44764 -18.48373,54.17695 -15.94056,21.72934 -39.97884,72.42484 -39.48989,70.41034 z"
           id="path4654" />
        <path
           id="path4656"
           d="m 223.36948,1047.476 c 0,0 46.01015,-21.1303 95.62317,-10.8742 49.61304,10.2559 91.5317,28.9259 91.5317,28.9259 0,0 -31.25013,-42.6235 -57.9362,-48.768 -26.68607,-6.1446 61.11188,-11.5336 61.11188,-11.5336 0,0 -73.41041,-50.27784 -95.79405,-25.80103 -22.38363,24.47683 48.08854,-40.29811 48.08854,-40.29811 0,0 -58.26854,-6.93478 -75.29789,22.43847 -17.02933,29.37323 3.71901,-31.71333 3.71901,-31.71333 0,0 -25.50866,20.21449 -34.64737,45.56699 -9.13872,25.35251 -37.79772,73.58661 -36.39879,72.05691 z"
           style="fill:#008000;stroke:none" />
      </g>
      <g
         style="fill:#002d00;fill-opacity:1"
         transform="matrix(1,0,0,-1,545.05256,2618.215)"
         id="g4658">
        <path
           style="fill:#002d00;fill-opacity:1;stroke:none"
           d="m 223.80433,1051.129 c 0,0 -8.13554,-49.9723 -44.32812,-85.42287 -36.19259,-35.45049 -75.07463,-59.8211 -75.07463,-59.8211 0,0 52.80811,2.15228 72.79668,20.87016 19.98856,18.71787 -24.52555,-57.15053 -24.52555,-57.15053 0,0 82.68335,32.8695 74.8594,65.10189 -7.82394,32.2324 6.61179,-62.39173 6.61179,-62.39173 0,0 38.26565,44.48656 23.39086,75.00749 -14.87478,30.52091 24.24319,-20.7806 24.24319,-20.7806 0,0 -2.54316,32.44764 -18.48373,54.17695 -15.94056,21.72934 -39.97884,72.42484 -39.48989,70.41034 z"
           id="path4660" />
        <path
           id="path4662"
           d="m 223.36948,1047.476 c 0,0 46.01015,-21.1303 95.62317,-10.8742 49.61304,10.2559 91.5317,28.9259 91.5317,28.9259 0,0 -31.25013,-42.6235 -57.9362,-48.768 -26.68607,-6.1446 61.11188,-11.5336 61.11188,-11.5336 0,0 -73.41041,-50.27784 -95.79405,-25.80103 -22.38363,24.47683 48.08854,-40.29811 48.08854,-40.29811 0,0 -58.26854,-6.93478 -75.29789,22.43847 -17.02933,29.37323 3.71901,-31.71333 3.71901,-31.71333 0,0 -25.50866,20.21449 -34.64737,45.56699 -9.13872,25.35251 -37.79772,73.58661 -36.39879,72.05691 z"
           style="fill:#002d00;fill-opacity:1;stroke:none" />
      </g>
      <g
         style="fill:#005600;fill-opacity:1"
         inkscape:transform-center-y="18.118142"
         inkscape:transform-center-x="108.70886"
         id="g4664"
         transform="matrix(0.49359583,0.86969142,0.86969142,-0.49359583,-417.3912,1899.9216)">
        <path
           id="path4666"
           d="m 223.80433,1051.129 c 0,0 -8.13554,-49.9723 -44.32812,-85.42287 -36.19259,-35.45049 -75.07463,-59.8211 -75.07463,-59.8211 0,0 52.80811,2.15228 72.79668,20.87016 19.98856,18.71787 -24.52555,-57.15053 -24.52555,-57.15053 0,0 82.68335,32.8695 74.8594,65.10189 -7.82394,32.2324 6.61179,-62.39173 6.61179,-62.39173 0,0 38.26565,44.48656 23.39086,75.00749 -14.87478,30.52091 24.24319,-20.7806 24.24319,-20.7806 0,0 -2.54316,32.44764 -18.48373,54.17695 -15.94056,21.72934 -39.97884,72.42484 -39.48989,70.41034 z"
           style="fill:#005600;fill-opacity:1;stroke:none" />
        <path
           style="fill:#005600;fill-opacity:1;stroke:none"
           d="m 223.36948,1047.476 c 0,0 46.01015,-21.1303 95.62317,-10.8742 49.61304,10.2559 91.5317,28.9259 91.5317,28.9259 0,0 -31.25013,-42.6235 -57.9362,-48.768 -26.68607,-6.1446 61.11188,-11.5336 61.11188,-11.5336 0,0 -73.41041,-50.27784 -95.79405,-25.80103 -22.38363,24.47683 48.08854,-40.29811 48.08854,-40.29811 0,0 -58.26854,-6.93478 -75.29789,22.43847 -17.02933,29.37323 3.71901,-31.71333 3.71901,-31.71333 0,0 -25.50866,20.21449 -34.64737,45.56699 -9.13872,25.35251 -37.79772,73.58661 -36.39879,72.05691 z"
           id="path4668" />
      </g>
      <path
         id="path4670"
         d="m 620.89205,1573.1254 c 0,0 -8.13554,49.9723 -44.32812,85.4229 -36.19259,35.4505 -75.07463,59.8211 -75.07463,59.8211 0,0 52.80811,-2.1523 72.79668,-20.8701 19.98856,-18.7179 -24.52555,57.1505 -24.52555,57.1505 0,0 82.68335,-32.8695 74.8594,-65.1019 -7.82394,-32.2324 6.61179,62.3917 6.61179,62.3917 0,0 38.26565,-44.4865 23.39086,-75.0075 -14.87478,-30.5209 24.24319,20.7806 24.24319,20.7806 0,0 -2.54316,-32.4476 -18.48373,-54.1769 -15.94056,-21.7294 -39.97884,-72.4249 -39.48989,-70.4104 z"
         style="fill:#008000;stroke:none" />
      <path
         style="fill:#008000;stroke:none"
         d="m 620.4572,1576.7784 c 0,0 46.01015,21.1303 95.62317,10.8742 49.61304,-10.2559 91.5317,-28.9259 91.5317,-28.9259 0,0 -31.25013,42.6235 -57.9362,48.768 -26.68607,6.1446 61.11188,11.5336 61.11188,11.5336 0,0 -73.41041,50.2779 -95.79405,25.8011 -22.38363,-24.4769 48.08854,40.2981 48.08854,40.2981 0,0 -58.26854,6.9348 -75.29789,-22.4385 -17.02933,-29.3732 3.71901,31.7133 3.71901,31.7133 0,0 -25.50866,-20.2144 -34.64737,-45.5669 -9.13872,-25.3526 -37.79772,-73.5867 -36.39879,-72.057 z"
         id="path4672" />
      <g
         transform="matrix(1,0,0,-1,397.08772,2624.2544)"
         id="g4674">
        <path
           id="path4676"
           d="m 223.80433,1051.129 c 0,0 -8.13554,-49.9723 -44.32812,-85.42287 -36.19259,-35.45049 -75.07463,-59.8211 -75.07463,-59.8211 0,0 52.80811,2.15228 72.79668,20.87016 19.98856,18.71787 -24.52555,-57.15053 -24.52555,-57.15053 0,0 82.68335,32.8695 74.8594,65.10189 -7.82394,32.2324 6.61179,-62.39173 6.61179,-62.39173 0,0 38.26565,44.48656 23.39086,75.00749 -14.87478,30.52091 24.24319,-20.7806 24.24319,-20.7806 0,0 -2.54316,32.44764 -18.48373,54.17695 -15.94056,21.72934 -39.97884,72.42484 -39.48989,70.41034 z"
           style="fill:#008000;stroke:none" />
        <path
           style="fill:#008000;stroke:none"
           d="m 223.36948,1047.476 c 0,0 46.01015,-21.1303 95.62317,-10.8742 49.61304,10.2559 91.5317,28.9259 91.5317,28.9259 0,0 -31.25013,-42.6235 -57.9362,-48.768 -26.68607,-6.1446 61.11188,-11.5336 61.11188,-11.5336 0,0 -73.41041,-50.27784 -95.79405,-25.80103 -22.38363,24.47683 48.08854,-40.29811 48.08854,-40.29811 0,0 -58.26854,-6.93478 -75.29789,22.43847 -17.02933,29.37323 3.71901,-31.71333 3.71901,-31.71333 0,0 -25.50866,20.21449 -34.64737,45.56699 -9.13872,25.35251 -37.79772,73.58661 -36.39879,72.05691 z"
           id="path4678" />
      </g>
      <g
         transform="matrix(0.86987659,0.49326943,0.49326943,-0.86987659,-311.84124,2348.393)"
         id="g4680"
         inkscape:transform-center-x="89.043672"
         inkscape:transform-center-y="65.627775"
         style="fill:#009400;fill-opacity:1">
        <path
           style="fill:#009400;fill-opacity:1;stroke:none"
           d="m 223.80433,1051.129 c 0,0 -8.13554,-49.9723 -44.32812,-85.42287 -36.19259,-35.45049 -75.07463,-59.8211 -75.07463,-59.8211 0,0 52.80811,2.15228 72.79668,20.87016 19.98856,18.71787 -24.52555,-57.15053 -24.52555,-57.15053 0,0 82.68335,32.8695 74.8594,65.10189 -7.82394,32.2324 6.61179,-62.39173 6.61179,-62.39173 0,0 38.26565,44.48656 23.39086,75.00749 -14.87478,30.52091 24.24319,-20.7806 24.24319,-20.7806 0,0 -2.54316,32.44764 -18.48373,54.17695 -15.94056,21.72934 -39.97884,72.42484 -39.48989,70.41034 z"
           id="path4682" />
        <path
           id="path4684"
           d="m 223.36948,1047.476 c 0,0 46.01015,-21.1303 95.62317,-10.8742 49.61304,10.2559 91.5317,28.9259 91.5317,28.9259 0,0 -31.25013,-42.6235 -57.9362,-48.768 -26.68607,-6.1446 61.11188,-11.5336 61.11188,-11.5336 0,0 -73.41041,-50.27784 -95.79405,-25.80103 -22.38363,24.47683 48.08854,-40.29811 48.08854,-40.29811 0,0 -58.26854,-6.93478 -75.29789,22.43847 -17.02933,29.37323 3.71901,-31.71333 3.71901,-31.71333 0,0 -25.50866,20.21449 -34.64737,45.56699 -9.13872,25.35251 -37.79772,73.58661 -36.39879,72.05691 z"
           style="fill:#009400;fill-opacity:1;stroke:none" />
      </g>
    </g>
  </g>
</svg>
